M48
;Layer_Color=9474304
;FILE_FORMAT=2:5
INCH,LZ
;TYPE=PLATED
T01F00S00C0.02800
T02F00S00C0.02811
T03F00S00C0.04331
T04F00S00C0.11024
T05F00S00C0.11800
T06F00S00C0.13780
%
T01
X00754Y00711
X01311Y00619
X01241Y00539
X0138793Y0045407
X02198Y00454
X02233Y01265
X02232Y0139
X02718Y01271
X0216257Y0126757
X02163Y0139275
X0210337Y0139941
X0197Y01287
X01823Y01255
X01816Y01386
X015972Y0149031
X0153403Y0149046
X0150814Y0155705
X0146197Y0164397
X0155122Y0170822
X0166363Y0175222
X01741Y01683
X01794Y02082
X01892Y02049
X0202207Y0203607
X0211Y01949
X0146781Y0192381
X01304Y01808
X00934Y01844
X00908Y01753
X0071928Y0173772
X0071222Y0122998
X00907Y01256
X00913Y01317
X00929Y01154
X01301Y00993
X01397
X014305Y01059
X0154793Y0093093
X015105Y012925
X01476Y0139
X018895Y01079
X0202Y01125
X019Y0085559
X0116Y00773
X00753Y00791
X0154631Y0223006
X0166123Y02182
X00556Y02796
X00948Y02895
X00937Y02391
X01482Y02281
X01549Y0229
T02
X00502Y02953
X00602Y03053
X00502Y03153
T03
X00525Y003
Y004
Y005
Y006
Y007
X00625
Y006
Y005
Y004
Y003
X02925
X03025
Y004
X02925
Y005
X03025
Y006
X02925
Y007
X03025
Y008
X02925
Y009
X03025
Y01
X02925
Y011
X03025
Y012
X02925
Y013
X03025
Y014
X02925
Y015
X03025
Y016
X02925
Y017
X03025
Y018
X02925
Y019
X03025
Y02
X02925
Y021
X03025
X008043Y0208804
Y0218804
X008043Y0198804
Y0188804
Y0178804
Y0168804
X008043Y0158804
Y0148804
Y0138804
Y0128804
X0080429Y0118803
Y0108803
Y0098803
Y0088803
X00625Y009
Y008
Y01
Y011
Y012
Y013
Y014
Y015
Y016
Y017
Y018
Y019
Y02
Y021
X00525
Y02
Y019
Y018
Y017
Y016
Y015
Y014
Y013
Y012
Y011
Y01
Y009
Y008
X008043Y0228804
Y0238804
X0080431Y0248805
Y0258805
Y0268805
Y0278805
T04
X0080431Y0046009
X02761
X0080431Y03216
X02761
T05
X00266Y02529
Y02779
X00466Y02654
T06
X002Y002
X0335
X00207Y03287
X03357
M30
