G04*
G04 #@! TF.GenerationSoftware,Altium Limited,Altium Designer,24.2.2 (26)*
G04*
G04 Layer_Physical_Order=1*
G04 Layer_Color=255*
%FSLAX25Y25*%
%MOIN*%
G70*
G04*
G04 #@! TF.SameCoordinates,7880CA01-A185-4AAC-BB8A-744F794AF487*
G04*
G04*
G04 #@! TF.FilePolarity,Positive*
G04*
G01*
G75*
%ADD10C,0.01000*%
%ADD29R,0.08268X0.05512*%
%ADD30R,0.03937X0.05118*%
%ADD31R,0.12402X0.07008*%
%ADD32R,0.07677X0.02559*%
%ADD33R,0.02559X0.04724*%
%ADD34R,0.07087X0.08268*%
%ADD35C,0.03937*%
%ADD36C,0.18000*%
%ADD37C,0.04811*%
%ADD38R,0.04811X0.04811*%
%ADD39C,0.06693*%
%ADD40R,0.06693X0.06693*%
%ADD41R,0.06693X0.06693*%
%ADD42C,0.19685*%
%ADD43C,0.23622*%
%ADD44C,0.05000*%
G36*
X68251Y273644D02*
Y215577D01*
X67846Y215347D01*
X57153D01*
Y213584D01*
X56653Y213407D01*
X55783Y214278D01*
X54564Y214982D01*
X53204Y215347D01*
X51796D01*
X50436Y214982D01*
X49217Y214278D01*
X48222Y213283D01*
X47518Y212064D01*
X47154Y210704D01*
Y209296D01*
X47518Y207936D01*
X48222Y206717D01*
X49217Y205722D01*
X49967Y205289D01*
Y204711D01*
X49217Y204278D01*
X48222Y203283D01*
X47518Y202064D01*
X47154Y200704D01*
Y199296D01*
X47518Y197936D01*
X48222Y196717D01*
X49217Y195722D01*
X49967Y195289D01*
Y194711D01*
X49217Y194278D01*
X48222Y193283D01*
X47518Y192064D01*
X47154Y190704D01*
Y189296D01*
X47518Y187936D01*
X48222Y186717D01*
X49217Y185722D01*
X49967Y185289D01*
Y184711D01*
X49217Y184278D01*
X48222Y183283D01*
X47518Y182064D01*
X47154Y180704D01*
Y179296D01*
X47518Y177936D01*
X48222Y176717D01*
X49217Y175722D01*
X49967Y175289D01*
Y174711D01*
X49217Y174278D01*
X48222Y173283D01*
X47518Y172064D01*
X47154Y170704D01*
Y169296D01*
X47518Y167936D01*
X48222Y166717D01*
X48490Y166449D01*
X45851Y163810D01*
X45299Y162983D01*
X45105Y162007D01*
Y124846D01*
X45299Y123871D01*
X45851Y123044D01*
X48202Y120693D01*
X48175Y120591D01*
X52500D01*
Y119409D01*
X48175D01*
X48464Y118328D01*
X49035Y117341D01*
X49841Y116535D01*
X50828Y115964D01*
X51499Y115785D01*
Y115267D01*
X50436Y114982D01*
X49217Y114278D01*
X48222Y113283D01*
X47518Y112064D01*
X47154Y110704D01*
Y109296D01*
X47518Y107936D01*
X48222Y106717D01*
X49217Y105722D01*
X49967Y105289D01*
Y104711D01*
X49217Y104278D01*
X48222Y103283D01*
X47518Y102064D01*
X47154Y100704D01*
Y99296D01*
X47518Y97936D01*
X48222Y96717D01*
X49217Y95722D01*
X49967Y95289D01*
Y94711D01*
X49217Y94278D01*
X48222Y93283D01*
X47518Y92064D01*
X47154Y90704D01*
Y89296D01*
X47518Y87936D01*
X48222Y86717D01*
X49217Y85722D01*
X49967Y85289D01*
Y84711D01*
X49217Y84278D01*
X48222Y83283D01*
X47518Y82064D01*
X47154Y80704D01*
Y79296D01*
X47518Y77936D01*
X48222Y76717D01*
X49217Y75722D01*
X49967Y75289D01*
Y74711D01*
X49217Y74278D01*
X48222Y73283D01*
X47518Y72064D01*
X47154Y70704D01*
Y69296D01*
X47518Y67936D01*
X48222Y66717D01*
X49217Y65722D01*
X49967Y65289D01*
Y64711D01*
X49217Y64278D01*
X48222Y63283D01*
X47518Y62064D01*
X47154Y60704D01*
Y59296D01*
X47518Y57936D01*
X48222Y56717D01*
X49217Y55722D01*
X49967Y55289D01*
Y54711D01*
X49217Y54278D01*
X48222Y53283D01*
X47518Y52064D01*
X47154Y50704D01*
Y49296D01*
X47518Y47936D01*
X48222Y46717D01*
X49217Y45722D01*
X49967Y45289D01*
Y44711D01*
X49217Y44278D01*
X48222Y43283D01*
X47518Y42064D01*
X47154Y40704D01*
Y39296D01*
X47518Y37936D01*
X48222Y36717D01*
X49217Y35722D01*
X49967Y35289D01*
Y34711D01*
X49217Y34278D01*
X48222Y33283D01*
X47518Y32064D01*
X47154Y30704D01*
Y29296D01*
X47518Y27936D01*
X48222Y26717D01*
X49217Y25722D01*
X49967Y25289D01*
Y24711D01*
X49217Y24278D01*
X48222Y23283D01*
X47518Y22064D01*
X47154Y20704D01*
Y19296D01*
X47518Y17936D01*
X48222Y16717D01*
X49217Y15722D01*
X50436Y15018D01*
X51796Y14654D01*
X53204D01*
X54564Y15018D01*
X55783Y15722D01*
X56778Y16717D01*
X57211Y17467D01*
X57789D01*
X58222Y16717D01*
X59217Y15722D01*
X60436Y15018D01*
X61796Y14654D01*
X63204D01*
X64564Y15018D01*
X65783Y15722D01*
X66778Y16717D01*
X67482Y17936D01*
X67847Y19296D01*
Y20704D01*
X67482Y22064D01*
X66778Y23283D01*
X65783Y24278D01*
X65033Y24711D01*
Y25289D01*
X65783Y25722D01*
X66778Y26717D01*
X67482Y27936D01*
X67847Y29296D01*
Y30704D01*
X67482Y32064D01*
X66778Y33283D01*
X65783Y34278D01*
X65033Y34711D01*
Y35289D01*
X65783Y35722D01*
X66778Y36717D01*
X67482Y37936D01*
X67643Y38539D01*
X68126Y38668D01*
X71319Y35476D01*
X71127Y35014D01*
X68653D01*
Y25502D01*
X80920D01*
Y27709D01*
X104480D01*
Y25502D01*
X116747D01*
Y35014D01*
X113198D01*
Y40148D01*
X115348D01*
X117325Y38170D01*
X117583Y37783D01*
X118169Y37198D01*
X118996Y36645D01*
X119972Y36451D01*
X120633D01*
X122008Y35076D01*
X121817Y34614D01*
X119853D01*
Y25102D01*
X132121D01*
Y34614D01*
X132121D01*
X132273Y35051D01*
X155527D01*
X155680Y34614D01*
X155680D01*
Y25102D01*
X167947D01*
Y34614D01*
X164317D01*
X164168Y35362D01*
X163616Y36189D01*
X161735Y38070D01*
X161926Y38532D01*
X164755D01*
Y46468D01*
X143168D01*
X142987Y47144D01*
X142394Y48170D01*
X141556Y49008D01*
X140530Y49600D01*
X139386Y49907D01*
X138201D01*
X137056Y49600D01*
X136406Y49224D01*
X135906Y49513D01*
Y50359D01*
X127576D01*
X127385Y50821D01*
X127701Y51137D01*
X128293Y52163D01*
X128600Y53308D01*
Y54492D01*
X128293Y55637D01*
X127701Y56663D01*
X126863Y57501D01*
X125837Y58093D01*
X124692Y58400D01*
X123612D01*
X123332Y58827D01*
X126138Y61633D01*
X126600Y61442D01*
Y61308D01*
X126907Y60163D01*
X127499Y59137D01*
X128337Y58299D01*
X129363Y57707D01*
X130508Y57400D01*
X131692D01*
X132837Y57707D01*
X133863Y58299D01*
X134701Y59137D01*
X134825Y59351D01*
X154349D01*
X172638Y41063D01*
Y34414D01*
X169053D01*
Y24902D01*
X181321D01*
Y34414D01*
X177736D01*
Y41063D01*
X179424Y42751D01*
X182005D01*
Y34276D01*
X204879D01*
Y24902D01*
X217147D01*
Y34414D01*
X213562D01*
Y41587D01*
X213368Y42562D01*
X212816Y43389D01*
X209102Y47102D01*
X208276Y47655D01*
X207300Y47849D01*
X178368D01*
X177393Y47655D01*
X176566Y47102D01*
X175187Y45723D01*
X157208Y63702D01*
X156380Y64255D01*
X155405Y64449D01*
X135386D01*
X135385Y64451D01*
X135667Y64951D01*
X135700D01*
X136676Y65145D01*
X137502Y65698D01*
X154556Y82751D01*
X164792D01*
X165051Y82251D01*
X164916Y82059D01*
X158994D01*
Y72941D01*
X174805D01*
Y74951D01*
X273944D01*
X287373Y61522D01*
X287154Y60704D01*
Y59296D01*
X287518Y57936D01*
X288222Y56717D01*
X289217Y55722D01*
X289967Y55289D01*
Y54711D01*
X289217Y54278D01*
X288222Y53283D01*
X287518Y52064D01*
X287294Y51227D01*
X286761Y51171D01*
X286229Y52216D01*
X285133Y53724D01*
X283815Y55042D01*
X282307Y56138D01*
X280646Y56984D01*
X278873Y57560D01*
X277032Y57852D01*
X275168D01*
X273327Y57560D01*
X271554Y56984D01*
X269893Y56138D01*
X268385Y55042D01*
X267067Y53724D01*
X265971Y52216D01*
X265125Y50555D01*
X264549Y48783D01*
X264258Y46942D01*
Y45077D01*
X264549Y43236D01*
X265125Y41464D01*
X265971Y39803D01*
X267067Y38295D01*
X268385Y36977D01*
X269893Y35881D01*
X271554Y35035D01*
X273327Y34459D01*
X275168Y34167D01*
X277032D01*
X278873Y34459D01*
X280646Y35035D01*
X282307Y35881D01*
X283815Y36977D01*
X285133Y38295D01*
X286229Y39803D01*
X286653Y40637D01*
X287154Y40516D01*
Y39296D01*
X287518Y37936D01*
X288222Y36717D01*
X289217Y35722D01*
X289967Y35289D01*
Y34711D01*
X289217Y34278D01*
X288222Y33283D01*
X287518Y32064D01*
X287154Y30704D01*
Y29296D01*
X287518Y27936D01*
X288222Y26717D01*
X289217Y25722D01*
X289967Y25289D01*
Y24711D01*
X289217Y24278D01*
X288222Y23283D01*
X287518Y22064D01*
X287154Y20704D01*
Y19296D01*
X287518Y17936D01*
X288222Y16717D01*
X289217Y15722D01*
X290436Y15018D01*
X291796Y14654D01*
X293204D01*
X294564Y15018D01*
X295783Y15722D01*
X296778Y16717D01*
X297211Y17467D01*
X297789D01*
X298222Y16717D01*
X299217Y15722D01*
X300436Y15018D01*
X301796Y14654D01*
X303000D01*
Y7600D01*
X40100D01*
X36300Y11400D01*
Y250488D01*
X36584Y251917D01*
Y253883D01*
X36300Y255312D01*
Y260284D01*
X36800Y260404D01*
X37192Y259635D01*
X38210Y258234D01*
X39434Y257010D01*
X40835Y255992D01*
X42377Y255206D01*
X44024Y254671D01*
X45734Y254400D01*
X47466D01*
X49176Y254671D01*
X50823Y255206D01*
X52365Y255992D01*
X53766Y257010D01*
X54990Y258234D01*
X56008Y259635D01*
X56794Y261177D01*
X57329Y262824D01*
X57600Y264534D01*
Y266266D01*
X57329Y267976D01*
X56794Y269622D01*
X56008Y271165D01*
X54990Y272566D01*
X54099Y273457D01*
X54278Y273985D01*
X54648Y274034D01*
X55614Y274433D01*
X56443Y275070D01*
X56576Y275203D01*
X57337Y275407D01*
X58363Y275999D01*
X59201Y276837D01*
X59793Y277863D01*
X60100Y279008D01*
Y280192D01*
X59793Y281337D01*
X59714Y281474D01*
X60114Y281781D01*
X68251Y273644D01*
D02*
G37*
G36*
X287154Y189686D02*
Y189296D01*
X287518Y187936D01*
X288222Y186717D01*
X289217Y185722D01*
X290436Y185018D01*
X291499Y184733D01*
Y184215D01*
X290828Y184036D01*
X289841Y183465D01*
X289035Y182659D01*
X288464Y181672D01*
X288175Y180591D01*
X292500D01*
Y179409D01*
X288175D01*
X288464Y178328D01*
X289035Y177341D01*
X289841Y176535D01*
X290828Y175964D01*
X291499Y175785D01*
Y175267D01*
X290436Y174982D01*
X289217Y174278D01*
X288222Y173283D01*
X287518Y172064D01*
X287154Y170704D01*
Y169296D01*
X287518Y167936D01*
X288222Y166717D01*
X289217Y165722D01*
X289967Y165289D01*
Y164711D01*
X289217Y164278D01*
X288222Y163283D01*
X287518Y162064D01*
X287154Y160704D01*
Y159296D01*
X287518Y157936D01*
X288222Y156717D01*
X289217Y155722D01*
X289967Y155289D01*
Y154711D01*
X289217Y154278D01*
X288222Y153283D01*
X287518Y152064D01*
X287154Y150704D01*
Y149296D01*
X287518Y147936D01*
X288222Y146717D01*
X289217Y145722D01*
X289967Y145289D01*
Y144711D01*
X289217Y144278D01*
X288222Y143283D01*
X287518Y142064D01*
X287154Y140704D01*
Y139296D01*
X287518Y137936D01*
X288222Y136717D01*
X289217Y135722D01*
X289967Y135289D01*
Y134711D01*
X289217Y134278D01*
X288222Y133283D01*
X287518Y132064D01*
X287154Y130704D01*
Y129296D01*
X287518Y127936D01*
X288222Y126717D01*
X289217Y125722D01*
X290436Y125018D01*
X291499Y124733D01*
Y124215D01*
X290828Y124036D01*
X289841Y123465D01*
X289035Y122659D01*
X288464Y121672D01*
X288175Y120591D01*
X292500D01*
X296825D01*
X296536Y121672D01*
X295965Y122659D01*
X295159Y123465D01*
X294172Y124036D01*
X293500Y124215D01*
Y124733D01*
X294564Y125018D01*
X295783Y125722D01*
X296778Y126717D01*
X297211Y127467D01*
X297789D01*
X298222Y126717D01*
X299217Y125722D01*
X300436Y125018D01*
X301500Y124733D01*
Y124215D01*
X300828Y124036D01*
X299841Y123465D01*
X299035Y122659D01*
X298464Y121672D01*
X298175Y120591D01*
X302500D01*
Y119409D01*
X298175D01*
X298464Y118328D01*
X299035Y117341D01*
X299841Y116535D01*
X300828Y115964D01*
X301500Y115785D01*
Y115267D01*
X300436Y114982D01*
X299217Y114278D01*
X298222Y113283D01*
X297518Y112064D01*
X297233Y111001D01*
X296715D01*
X296536Y111672D01*
X295965Y112659D01*
X295159Y113465D01*
X294172Y114036D01*
X293091Y114325D01*
Y110000D01*
X292500D01*
Y109409D01*
X288175D01*
X288464Y108328D01*
X289035Y107341D01*
X289841Y106535D01*
X290828Y105964D01*
X291499Y105785D01*
Y105267D01*
X290436Y104982D01*
X289217Y104278D01*
X288222Y103283D01*
X287518Y102064D01*
X287154Y100704D01*
Y99296D01*
X287518Y97936D01*
X288222Y96717D01*
X289217Y95722D01*
X289967Y95289D01*
Y94711D01*
X289217Y94278D01*
X288222Y93283D01*
X287518Y92064D01*
X287154Y90704D01*
Y89658D01*
X286653Y89451D01*
X230102Y146002D01*
X229275Y146555D01*
X228300Y146749D01*
X206600D01*
X205625Y146555D01*
X204798Y146002D01*
X195144Y136349D01*
X185996D01*
X185747Y136782D01*
X185793Y136863D01*
X186100Y138008D01*
Y139192D01*
X185793Y140337D01*
X185201Y141363D01*
X184363Y142201D01*
X183337Y142793D01*
X182192Y143100D01*
X181008D01*
X179863Y142793D01*
X178837Y142201D01*
X177999Y141363D01*
X177875Y141149D01*
X167172D01*
X166197Y140955D01*
X165370Y140402D01*
X161761Y136793D01*
X161208Y135966D01*
X161107Y135459D01*
X159595D01*
Y126341D01*
X175406D01*
Y131251D01*
X192777D01*
X193027Y130818D01*
X192807Y130437D01*
X192500Y129292D01*
Y128108D01*
X192455Y128049D01*
X186024D01*
X185901Y128263D01*
X185063Y129101D01*
X184037Y129693D01*
X182892Y130000D01*
X181708D01*
X180563Y129693D01*
X179537Y129101D01*
X178699Y128263D01*
X178107Y127237D01*
X177800Y126092D01*
Y124908D01*
X178003Y124149D01*
X177620Y123649D01*
X167172D01*
X166197Y123455D01*
X165370Y122902D01*
X162327Y119859D01*
X157994D01*
Y110741D01*
X166139D01*
X166283Y110278D01*
X166276Y110241D01*
X165470Y109702D01*
X163327Y107559D01*
X158994D01*
Y98441D01*
X172028D01*
X172313Y98384D01*
X173311D01*
X185509Y86186D01*
X185500Y86151D01*
Y84967D01*
X185624Y84505D01*
X185319Y84108D01*
X173089D01*
X172822Y84608D01*
X173192Y85162D01*
X173386Y86137D01*
Y86441D01*
X174805D01*
Y95559D01*
X158994D01*
X158994Y95559D01*
Y95559D01*
X158510Y95656D01*
X158394Y95856D01*
X157556Y96694D01*
X156530Y97286D01*
X155385Y97593D01*
X154200D01*
X153056Y97286D01*
X152030Y96694D01*
X151192Y95856D01*
X150600Y94830D01*
X150293Y93685D01*
X149803Y93709D01*
Y103062D01*
X149666Y104098D01*
X149267Y105064D01*
X148630Y105893D01*
X147374Y107149D01*
X147321Y107345D01*
X147321Y107346D01*
X147612Y107870D01*
X147667Y107904D01*
X148250Y108020D01*
X149077Y108572D01*
X151502Y110997D01*
X152055Y111824D01*
X152249Y112800D01*
Y118344D01*
X156852Y122948D01*
X157405Y123775D01*
X157599Y124750D01*
Y130907D01*
X157405Y131882D01*
X156852Y132709D01*
X153459Y136102D01*
X152632Y136655D01*
X152083Y136764D01*
X151824Y137211D01*
X151811Y137328D01*
X152100Y138408D01*
Y139592D01*
X151793Y140737D01*
X151201Y141763D01*
X150363Y142601D01*
X149395Y143160D01*
X148878Y143934D01*
X146710Y146102D01*
X145883Y146655D01*
X144907Y146849D01*
X144141D01*
Y147580D01*
X143125D01*
Y148709D01*
X133479D01*
Y147580D01*
X132464D01*
Y141021D01*
X133479D01*
Y139891D01*
X138302D01*
Y138709D01*
X133479D01*
Y137580D01*
X132464D01*
Y131020D01*
Y126021D01*
Y121020D01*
Y116924D01*
X106374D01*
X105921Y117036D01*
Y118709D01*
X101098D01*
Y119891D01*
X105921D01*
Y121020D01*
X106936D01*
Y126021D01*
Y131020D01*
Y136021D01*
Y141021D01*
Y146020D01*
Y151021D01*
Y156020D01*
Y161021D01*
Y167579D01*
X95259D01*
Y167553D01*
X94759Y167346D01*
X93849Y168256D01*
Y169244D01*
X94656Y170051D01*
X146703D01*
X147542Y169213D01*
X147283Y168764D01*
X146789Y168897D01*
X145604D01*
X144460Y168590D01*
X144130Y168399D01*
X138399D01*
X137363Y168263D01*
X136398Y167863D01*
X136028Y167579D01*
X132464D01*
Y161021D01*
Y156020D01*
Y151021D01*
X133479D01*
Y149891D01*
X143125D01*
Y151021D01*
X144141D01*
Y151626D01*
X148201D01*
X148705Y151726D01*
X149077Y151512D01*
X149160Y151490D01*
X149351Y151028D01*
X149210Y150783D01*
X148903Y149638D01*
Y148453D01*
X149210Y147309D01*
X149802Y146283D01*
X150640Y145445D01*
X151666Y144853D01*
X152811Y144546D01*
X153996D01*
X155140Y144853D01*
X156167Y145445D01*
X156554Y145833D01*
X156957Y145431D01*
X157983Y144838D01*
X159128Y144532D01*
X159794D01*
Y143041D01*
X175605D01*
Y148554D01*
X180302Y153251D01*
X180855Y154078D01*
X181049Y155053D01*
Y169557D01*
X180926Y170176D01*
X181314Y170676D01*
X191525D01*
X192501Y170870D01*
X193328Y171423D01*
X199929Y178024D01*
X200408Y178741D01*
X203031D01*
Y183484D01*
X203532Y183691D01*
X203984Y183238D01*
Y179757D01*
X206346D01*
Y183300D01*
X206937D01*
Y183891D01*
X209890D01*
Y186810D01*
X212839D01*
X215494Y184154D01*
Y178641D01*
X227701D01*
X269251Y137091D01*
Y130824D01*
X269037Y130701D01*
X268199Y129863D01*
X267607Y128837D01*
X267300Y127692D01*
Y126508D01*
X267607Y125363D01*
X268199Y124337D01*
X269037Y123499D01*
X270063Y122907D01*
X271208Y122600D01*
X272392D01*
X273537Y122907D01*
X274563Y123499D01*
X275401Y124337D01*
X275993Y125363D01*
X276300Y126508D01*
Y127692D01*
X275993Y128837D01*
X275401Y129863D01*
X274563Y130701D01*
X274349Y130824D01*
Y138146D01*
X274155Y139122D01*
X273602Y139949D01*
X231306Y182246D01*
Y187759D01*
X219099D01*
X215697Y191162D01*
X214879Y191708D01*
X214813Y191753D01*
X214674Y192263D01*
X215193Y193163D01*
X215500Y194308D01*
Y195492D01*
X215193Y196637D01*
X214601Y197663D01*
X213763Y198501D01*
X212737Y199093D01*
X211592Y199400D01*
X210408D01*
X209263Y199093D01*
X208237Y198501D01*
X207399Y197663D01*
X206807Y196637D01*
X206500Y195492D01*
Y194308D01*
X206105Y193908D01*
X170891D01*
X167510Y197289D01*
X167702Y197751D01*
X198900D01*
X199875Y197945D01*
X200702Y198498D01*
X201376Y199171D01*
X201614Y199107D01*
X202799D01*
X203944Y199414D01*
X204970Y200006D01*
X205808Y200844D01*
X206400Y201870D01*
X206707Y203014D01*
Y204199D01*
X206400Y205344D01*
X205808Y206370D01*
X204970Y207208D01*
X203944Y207800D01*
X202799Y208107D01*
X201614D01*
X200470Y207800D01*
X199444Y207208D01*
X198606Y206370D01*
X198013Y205344D01*
X197707Y204199D01*
Y203014D01*
X197580Y202849D01*
X193735D01*
X193443Y203349D01*
X193700Y204308D01*
Y205492D01*
X193393Y206637D01*
X192801Y207663D01*
X191963Y208501D01*
X190937Y209093D01*
X189792Y209400D01*
X188705D01*
X183102Y215002D01*
X182275Y215555D01*
X181300Y215749D01*
X170404D01*
X170154Y216182D01*
X170316Y216463D01*
X170623Y217608D01*
Y218792D01*
X170316Y219937D01*
X169724Y220963D01*
X168886Y221801D01*
X167860Y222393D01*
X166715Y222700D01*
X165530D01*
X164386Y222393D01*
X163360Y221801D01*
X162522Y220963D01*
X162398Y220749D01*
X159025D01*
X158774Y221182D01*
X158825Y221269D01*
X159132Y222414D01*
Y223599D01*
X158825Y224743D01*
X158232Y225769D01*
X158133Y225869D01*
X158501Y226237D01*
X159093Y227263D01*
X159400Y228408D01*
Y229592D01*
X159093Y230737D01*
X158699Y231419D01*
Y234239D01*
X159358Y234897D01*
X160846D01*
Y223866D01*
X171933D01*
Y236134D01*
X170376D01*
X170256Y237046D01*
X169856Y238012D01*
X169220Y238841D01*
X166330Y241730D01*
X165501Y242367D01*
X164536Y242766D01*
X163500Y242903D01*
X159358D01*
X145761Y256500D01*
X149930Y260670D01*
X150566Y261499D01*
X150966Y262464D01*
X151103Y263500D01*
Y266442D01*
X152558Y267897D01*
X208942D01*
X287154Y189686D01*
D02*
G37*
G36*
X87397Y266177D02*
Y260800D01*
X87534Y259764D01*
X87933Y258799D01*
X88570Y257970D01*
X92870Y253670D01*
X93699Y253033D01*
X94664Y252634D01*
X95700Y252497D01*
X96299D01*
Y250996D01*
X112701D01*
Y252497D01*
X138442D01*
X150975Y239965D01*
X150783Y239503D01*
X144400D01*
X143364Y239366D01*
X142399Y238966D01*
X141570Y238330D01*
X140442Y237203D01*
X138802D01*
X137766Y237066D01*
X136801Y236666D01*
X136557Y236479D01*
X132964D01*
Y229921D01*
Y224921D01*
Y219920D01*
Y214920D01*
Y209921D01*
Y204921D01*
Y199920D01*
Y194921D01*
Y189920D01*
Y185093D01*
X132527Y184768D01*
X132137Y184993D01*
X130992Y185300D01*
X129808D01*
X128663Y184993D01*
X127637Y184401D01*
X126799Y183563D01*
X126207Y182537D01*
X125900Y181392D01*
Y180208D01*
X126024Y179746D01*
X125719Y179349D01*
X117206D01*
X115453Y181102D01*
X114626Y181655D01*
X113651Y181849D01*
X96304D01*
X96037Y182349D01*
X96355Y182825D01*
X96549Y183800D01*
X96525Y183920D01*
X97476Y184871D01*
X100818D01*
X101794Y185065D01*
X102620Y185618D01*
X102939Y185936D01*
X106421D01*
Y187609D01*
X101598D01*
Y188791D01*
X106421D01*
Y189920D01*
X107436D01*
Y194921D01*
Y199920D01*
Y204921D01*
Y209921D01*
Y214920D01*
Y219920D01*
Y224921D01*
Y229921D01*
Y236479D01*
X97883D01*
X97633Y236913D01*
X97893Y237363D01*
X98200Y238508D01*
Y239692D01*
X97893Y240837D01*
X97301Y241863D01*
X96463Y242701D01*
X95437Y243293D01*
X94292Y243600D01*
X93108D01*
X91963Y243293D01*
X90937Y242701D01*
X90099Y241863D01*
X89507Y240837D01*
X89332Y240185D01*
X88849Y240056D01*
X88074Y240831D01*
X87683Y241774D01*
X86803Y243211D01*
X86087Y244049D01*
X85789Y244426D01*
X85789Y244426D01*
X85789Y244426D01*
X85776Y244447D01*
X85712Y244489D01*
X85406Y244739D01*
X84982Y245087D01*
X84709Y245522D01*
X85413Y246741D01*
X85777Y248101D01*
Y249509D01*
X85413Y250868D01*
X84709Y252087D01*
X83714Y253083D01*
X82963Y253516D01*
Y254093D01*
X83714Y254526D01*
X84709Y255522D01*
X85413Y256741D01*
X85777Y258101D01*
Y259509D01*
X85413Y260868D01*
X84709Y262087D01*
X83714Y263083D01*
X82494Y263787D01*
X81431Y264072D01*
Y264589D01*
X82102Y264769D01*
X83090Y265339D01*
X83896Y266146D01*
X84466Y267133D01*
X84734Y268133D01*
X85210Y268365D01*
X87397Y266177D01*
D02*
G37*
G36*
X171284Y183291D02*
X174237D01*
Y182700D01*
X174828D01*
Y179157D01*
X177190D01*
Y182210D01*
X188287D01*
X189262Y182404D01*
X190089Y182957D01*
X191584Y184451D01*
X195095D01*
Y180399D01*
X190469Y175774D01*
X178716D01*
X178388Y176102D01*
X177561Y176655D01*
X176585Y176849D01*
X171357D01*
X170625Y176703D01*
X170556Y176959D01*
X170366Y177289D01*
Y182700D01*
X170332Y182960D01*
Y185651D01*
X171284D01*
Y183291D01*
D02*
G37*
G36*
X68251Y178874D02*
Y178272D01*
X68445Y177296D01*
X68703Y176910D01*
X68327Y176535D01*
X67735Y175508D01*
X67428Y174364D01*
Y173179D01*
X67735Y172035D01*
X68327Y171009D01*
X69165Y170171D01*
X70192Y169578D01*
X71336Y169272D01*
X72521D01*
X72685Y169316D01*
X73067Y168992D01*
X73048Y168804D01*
X73121Y168062D01*
X73105Y167786D01*
X72898Y167549D01*
X66586D01*
X66336Y167982D01*
X66536Y168328D01*
X66825Y169409D01*
X62500D01*
Y170591D01*
X66825D01*
X66536Y171672D01*
X65965Y172659D01*
X65159Y173465D01*
X64172Y174036D01*
X63500Y174215D01*
Y174733D01*
X64564Y175018D01*
X65783Y175722D01*
X66778Y176717D01*
X67482Y177936D01*
X67751Y178940D01*
X68251Y178874D01*
D02*
G37*
G36*
X68201Y118688D02*
Y112250D01*
X68395Y111275D01*
X68948Y110448D01*
X72394Y107001D01*
X73221Y106448D01*
X74197Y106254D01*
X75727D01*
X76151Y105521D01*
X77147Y104525D01*
X77897Y104092D01*
Y103515D01*
X77147Y103082D01*
X76151Y102086D01*
X75447Y100867D01*
X75083Y99507D01*
Y98100D01*
X75447Y96740D01*
X76151Y95521D01*
X77147Y94525D01*
X77897Y94092D01*
Y93515D01*
X77147Y93082D01*
X76151Y92086D01*
X75447Y90867D01*
X75083Y89507D01*
Y88100D01*
X75447Y86740D01*
X76151Y85521D01*
X77147Y84525D01*
X78366Y83821D01*
X79726Y83457D01*
X81133D01*
X81952Y83676D01*
X88231Y77398D01*
X89057Y76845D01*
X90033Y76651D01*
X100521D01*
Y74838D01*
X107080D01*
Y83562D01*
X100521D01*
Y81749D01*
X91089D01*
X85557Y87281D01*
X85776Y88100D01*
Y89507D01*
X85412Y90867D01*
X84708Y92086D01*
X83712Y93082D01*
X82962Y93515D01*
Y94092D01*
X83712Y94525D01*
X84708Y95521D01*
X85131Y96254D01*
X89604D01*
X95995Y89864D01*
Y84941D01*
X111805D01*
Y85497D01*
X127442D01*
X129197Y83742D01*
Y76000D01*
X129232Y75740D01*
Y71441D01*
X135383D01*
X135574Y70979D01*
X134644Y70049D01*
X128400D01*
X127425Y69855D01*
X126598Y69302D01*
X114798Y57502D01*
X114245Y56675D01*
X114103Y55964D01*
X113605Y55959D01*
Y55959D01*
X112186D01*
Y57663D01*
X111992Y58639D01*
X111439Y59465D01*
X105962Y64943D01*
X106153Y65405D01*
X106950D01*
Y68751D01*
X108131D01*
Y65405D01*
X109804D01*
Y67639D01*
X109895Y67776D01*
X110089Y68751D01*
Y68778D01*
X116077Y74766D01*
X116975Y74945D01*
X117802Y75498D01*
X118355Y76324D01*
X118549Y77300D01*
X118355Y78276D01*
X117802Y79102D01*
X116975Y79655D01*
X116000Y79849D01*
X115006D01*
X114031Y79655D01*
X113204Y79102D01*
X106199Y72098D01*
X105276D01*
Y70946D01*
X105185Y70809D01*
X104991Y69834D01*
Y68751D01*
X105185Y67776D01*
X105276Y67639D01*
Y66282D01*
X104814Y66090D01*
X103388Y67516D01*
Y67972D01*
X103339Y68218D01*
Y73113D01*
X96780D01*
Y64389D01*
X99306D01*
X107088Y56607D01*
Y55959D01*
X102181D01*
X102097Y56085D01*
X79773Y78409D01*
X79800Y78508D01*
Y79692D01*
X79493Y80837D01*
X78901Y81863D01*
X78063Y82701D01*
X77037Y83293D01*
X75892Y83600D01*
X74708D01*
X74146Y83449D01*
X73749Y83754D01*
Y91300D01*
X73555Y92276D01*
X73002Y93102D01*
X67627Y98478D01*
X67847Y99296D01*
Y100704D01*
X67482Y102064D01*
X66778Y103283D01*
X65783Y104278D01*
X65033Y104711D01*
Y105289D01*
X65783Y105722D01*
X66778Y106717D01*
X67482Y107936D01*
X67847Y109296D01*
Y110704D01*
X67482Y112064D01*
X66778Y113283D01*
X65783Y114278D01*
X65033Y114711D01*
Y115289D01*
X65783Y115722D01*
X66778Y116717D01*
X67482Y117936D01*
X67701Y118754D01*
X68201Y118688D01*
D02*
G37*
%LPC*%
G36*
X220392Y49900D02*
X219208D01*
X218063Y49593D01*
X217037Y49001D01*
X216199Y48163D01*
X215607Y47137D01*
X215300Y45992D01*
Y44808D01*
X215607Y43663D01*
X216199Y42637D01*
X217037Y41799D01*
X217846Y41332D01*
X217874Y41196D01*
X218426Y40369D01*
X222538Y36258D01*
Y34314D01*
X218953D01*
Y24802D01*
X231221D01*
Y34314D01*
X227636D01*
Y36258D01*
X231629Y40251D01*
X232805D01*
Y32476D01*
X254780D01*
Y24802D01*
X267047D01*
Y34314D01*
X263462D01*
Y39487D01*
X263268Y40462D01*
X262716Y41289D01*
X259402Y44602D01*
X258576Y45155D01*
X257600Y45349D01*
X230573D01*
X229598Y45155D01*
X228771Y44602D01*
X225087Y40918D01*
X223384Y42620D01*
X223401Y42637D01*
X223993Y43663D01*
X224300Y44808D01*
Y45992D01*
X223993Y47137D01*
X223401Y48163D01*
X222563Y49001D01*
X221537Y49593D01*
X220392Y49900D01*
D02*
G37*
G36*
X79905Y16282D02*
X75377D01*
Y13132D01*
X79905D01*
Y16282D01*
D02*
G37*
G36*
X74196D02*
X69669D01*
Y13132D01*
X74196D01*
Y16282D01*
D02*
G37*
G36*
X115732D02*
X111204D01*
Y13132D01*
X115732D01*
Y16282D01*
D02*
G37*
G36*
X110023D02*
X105495D01*
Y13132D01*
X110023D01*
Y16282D01*
D02*
G37*
G36*
X131105Y15882D02*
X126577D01*
Y12732D01*
X131105D01*
Y15882D01*
D02*
G37*
G36*
X125396D02*
X120869D01*
Y12732D01*
X125396D01*
Y15882D01*
D02*
G37*
G36*
X166931D02*
X162404D01*
Y12732D01*
X166931D01*
Y15882D01*
D02*
G37*
G36*
X161223D02*
X156695D01*
Y12732D01*
X161223D01*
Y15882D01*
D02*
G37*
G36*
X180305Y15682D02*
X175777D01*
Y12532D01*
X180305D01*
Y15682D01*
D02*
G37*
G36*
X174596D02*
X170069D01*
Y12532D01*
X174596D01*
Y15682D01*
D02*
G37*
G36*
X216131D02*
X211604D01*
Y12532D01*
X216131D01*
Y15682D01*
D02*
G37*
G36*
X210423D02*
X205895D01*
Y12532D01*
X210423D01*
Y15682D01*
D02*
G37*
G36*
X230205Y15582D02*
X225677D01*
Y12432D01*
X230205D01*
Y15582D01*
D02*
G37*
G36*
X224496D02*
X219969D01*
Y12432D01*
X224496D01*
Y15582D01*
D02*
G37*
G36*
X266032D02*
X261504D01*
Y12432D01*
X266032D01*
Y15582D01*
D02*
G37*
G36*
X260323D02*
X255795D01*
Y12432D01*
X260323D01*
Y15582D01*
D02*
G37*
G36*
X115732Y11951D02*
X111204D01*
Y8802D01*
X115732D01*
Y11951D01*
D02*
G37*
G36*
X110023D02*
X105495D01*
Y8802D01*
X110023D01*
Y11951D01*
D02*
G37*
G36*
X79905Y11951D02*
X75377D01*
Y8802D01*
X79905D01*
Y11951D01*
D02*
G37*
G36*
X74196D02*
X69669D01*
Y8802D01*
X74196D01*
Y11951D01*
D02*
G37*
G36*
X166931Y11551D02*
X162404D01*
Y8402D01*
X166931D01*
Y11551D01*
D02*
G37*
G36*
X161223D02*
X156695D01*
Y8402D01*
X161223D01*
Y11551D01*
D02*
G37*
G36*
X131105Y11551D02*
X126577D01*
Y8402D01*
X131105D01*
Y11551D01*
D02*
G37*
G36*
X125396D02*
X120869D01*
Y8402D01*
X125396D01*
Y11551D01*
D02*
G37*
G36*
X216131Y11351D02*
X211604D01*
Y8202D01*
X216131D01*
Y11351D01*
D02*
G37*
G36*
X210423D02*
X205895D01*
Y8202D01*
X210423D01*
Y11351D01*
D02*
G37*
G36*
X180305Y11351D02*
X175777D01*
Y8202D01*
X180305D01*
Y11351D01*
D02*
G37*
G36*
X174596D02*
X170069D01*
Y8202D01*
X174596D01*
Y11351D01*
D02*
G37*
G36*
X266032Y11251D02*
X261504D01*
Y8102D01*
X266032D01*
Y11251D01*
D02*
G37*
G36*
X260323D02*
X255795D01*
Y8102D01*
X260323D01*
Y11251D01*
D02*
G37*
G36*
X230205Y11251D02*
X225677D01*
Y8102D01*
X230205D01*
Y11251D01*
D02*
G37*
G36*
X224496D02*
X219969D01*
Y8102D01*
X224496D01*
Y11251D01*
D02*
G37*
G36*
X189028Y235118D02*
X185091D01*
Y230591D01*
X189028D01*
Y235118D01*
D02*
G37*
G36*
X183909D02*
X179973D01*
Y230591D01*
X183909D01*
Y235118D01*
D02*
G37*
G36*
X189028Y229410D02*
X185091D01*
Y224882D01*
X189028D01*
Y229410D01*
D02*
G37*
G36*
X183909D02*
X179973D01*
Y224882D01*
X183909D01*
Y229410D01*
D02*
G37*
G36*
X209890Y182709D02*
X207527D01*
Y179757D01*
X209890D01*
Y182709D01*
D02*
G37*
G36*
X296825Y119409D02*
X293091D01*
Y115675D01*
X294172Y115964D01*
X295159Y116535D01*
X295965Y117341D01*
X296536Y118328D01*
X296825Y119409D01*
D02*
G37*
G36*
X291910D02*
X288175D01*
X288464Y118328D01*
X289035Y117341D01*
X289841Y116535D01*
X290828Y115964D01*
X291910Y115675D01*
Y119409D01*
D02*
G37*
G36*
Y114325D02*
X290828Y114036D01*
X289841Y113465D01*
X289035Y112659D01*
X288464Y111672D01*
X288175Y110591D01*
X291910D01*
Y114325D01*
D02*
G37*
G36*
X173646Y182109D02*
X171284D01*
Y179157D01*
X173646D01*
Y182109D01*
D02*
G37*
G36*
X128279Y79543D02*
X125917D01*
Y76591D01*
X128279D01*
Y79543D01*
D02*
G37*
G36*
X124735D02*
X122373D01*
Y76591D01*
X124735D01*
Y79543D01*
D02*
G37*
G36*
X128279Y75410D02*
X125917D01*
Y72457D01*
X128279D01*
Y75410D01*
D02*
G37*
G36*
X124735D02*
X122373D01*
Y72457D01*
X124735D01*
Y75410D01*
D02*
G37*
%LPD*%
D10*
X91163Y49680D02*
G03*
X84102Y56741I-10732J-3671D01*
G01*
X79788Y154000D02*
G03*
X80472Y153957I642J4804D01*
G01*
X81097Y173604D02*
G03*
X75630Y168137I-667J-4800D01*
G01*
X85908Y239468D02*
G03*
X83973Y242645I-7791J-2567D01*
G01*
X83973Y242645D02*
G03*
X82056Y243844I-3454J-3388D01*
G01*
X119972Y39000D02*
X121689D01*
X119386Y39586D02*
Y39714D01*
Y39586D02*
X119972Y39000D01*
X116403Y42697D02*
X119386Y39714D01*
X98146Y42697D02*
X116403D01*
X91163Y49680D02*
X98146Y42697D01*
X101818Y44697D02*
X112997D01*
X116600Y48300D01*
X75414Y71100D02*
X101818Y44697D01*
X16100Y294400D02*
X37000Y315300D01*
X50200D01*
X16100Y263400D02*
Y294400D01*
X147075Y139525D02*
X147600Y139000D01*
X144907Y144300D02*
X147075Y142132D01*
Y139525D02*
Y142132D01*
X163563Y134991D02*
X167172Y138600D01*
X181600D01*
X174337Y133800D02*
X196200D01*
X171437Y130900D02*
X174337Y133800D01*
X196200D02*
X206600Y144200D01*
X193800Y125500D02*
X197000Y128700D01*
X182300Y125500D02*
X193800D01*
X197500Y121100D02*
X210337Y133937D01*
X167172Y121100D02*
X197500D01*
X161963Y115891D02*
X167172Y121100D01*
X50200Y315300D02*
X56295Y309206D01*
X16100Y263400D02*
X26600Y252900D01*
X93400Y184400D02*
X94000Y183800D01*
X80431Y268805D02*
X81295D01*
X50200Y295300D02*
X70800Y274700D01*
X75584Y274837D02*
X80431Y269990D01*
X73584Y274008D02*
X75584Y272008D01*
Y263651D02*
X80431Y258805D01*
X75584Y282772D02*
X77584Y284772D01*
X75584Y274837D02*
Y282772D01*
Y263651D02*
Y272008D01*
X73584Y274008D02*
Y283601D01*
X70800Y178272D02*
Y274700D01*
X74787Y30258D02*
X110613D01*
X69000Y41399D02*
X75000Y35400D01*
X74787Y30258D02*
X75000Y30471D01*
Y35400D01*
X69000Y41399D02*
Y63500D01*
X62500Y70000D02*
X69000Y63500D01*
X75400Y71100D02*
X75414D01*
X178368Y45300D02*
X207300D01*
X211013Y29658D02*
Y41587D01*
X175187Y42118D02*
X178368Y45300D01*
X207300D02*
X211013Y41587D01*
X219800Y45400D02*
X220228Y44972D01*
Y42172D02*
Y44972D01*
Y42172D02*
X225087Y37313D01*
X230573Y42800D02*
X257600D01*
X225087Y37313D02*
X230573Y42800D01*
X225087Y29558D02*
Y37313D01*
X257600Y42800D02*
X260913Y39487D01*
X158600Y37600D02*
X161813Y34387D01*
X125600Y35089D02*
X128111Y37600D01*
X158600D01*
X161813Y29858D02*
Y34387D01*
X125600Y31529D02*
X127000Y30129D01*
X84102Y56741D02*
X84102Y56741D01*
X71200Y69643D02*
X84102Y56741D01*
X91163Y49680D02*
X91163Y49680D01*
X121689Y39000D02*
X125600Y35089D01*
Y31529D02*
Y35089D01*
X260913Y29558D02*
Y39487D01*
X175187Y29658D02*
Y42118D01*
X131100Y61900D02*
X155405D01*
X175187Y42118D01*
X61818Y309206D02*
X77584Y293439D01*
X56295Y309206D02*
X61818D01*
X77584Y284772D02*
Y293439D01*
X73584Y283601D02*
X75584Y285601D01*
X80431Y268805D02*
Y269990D01*
X75584Y285601D02*
Y289916D01*
X60200Y305300D02*
X75584Y289916D01*
X71300Y174400D02*
Y177772D01*
X70800Y178272D02*
X71300Y177772D01*
X47653Y124846D02*
Y162007D01*
X50800Y165154D01*
X47653Y124846D02*
X52500Y120000D01*
X54507Y165154D02*
X56354Y167000D01*
X58646D01*
X61646Y170000D01*
X62500D01*
X50800Y165154D02*
X54507D01*
X57500Y165000D02*
X74843D01*
X52500Y160000D02*
X57500Y165000D01*
X154471Y223167D02*
X154631Y223006D01*
X138836Y223167D02*
X154471D01*
X156300Y175300D02*
X162800Y168800D01*
X175757Y172300D02*
X178500Y169557D01*
X171357Y174300D02*
X176585D01*
X178500Y155053D02*
Y169557D01*
X172185Y172300D02*
X175757D01*
X168685Y168800D02*
X172185Y172300D01*
X145332Y177500D02*
X158428D01*
X167857Y170800D02*
X171357Y174300D01*
X165128Y170800D02*
X167857D01*
X162800Y168800D02*
X168685D01*
X158428Y177500D02*
X165128Y170800D01*
X177660Y173225D02*
X191525D01*
X176585Y174300D02*
X177660Y173225D01*
X171637Y148191D02*
X178500Y155053D01*
X191525Y173225D02*
X198127Y179827D01*
X151756Y161997D02*
Y168703D01*
X79788Y154000D02*
X79788D01*
X66500D02*
X79788D01*
X70750Y112250D02*
Y122527D01*
Y112250D02*
X74197Y108803D01*
X138427Y154175D02*
X148201D01*
X138302Y159300D02*
X149059D01*
X151756Y161997D01*
X148201Y154175D02*
X149731Y155705D01*
X150814D01*
X138302Y144300D02*
X144907D01*
X130100Y99300D02*
X139700D01*
X149700Y119400D02*
X155050Y124750D01*
Y130907D01*
X151657Y134300D02*
X155050Y130907D01*
X138352Y129250D02*
X151050D01*
X138302Y134300D02*
X151657D01*
X162294Y149031D02*
Y149659D01*
X159720Y149031D02*
X162294D01*
Y149659D02*
X162762Y149191D01*
Y148600D02*
X163763Y147599D01*
X162762Y148600D02*
Y149191D01*
X138302Y154300D02*
X138427Y154175D01*
X171637Y147600D02*
Y148191D01*
X138802Y218200D02*
X166123D01*
X138802Y223200D02*
X138836Y223167D01*
X100839Y66461D02*
X109637Y57663D01*
X100060Y68751D02*
X100839Y67972D01*
X109637Y51400D02*
Y57663D01*
X100839Y66461D02*
Y67972D01*
X171037Y116500D02*
X246000D01*
X292500Y70000D01*
X169837Y115300D02*
X171037Y116500D01*
X202000Y86200D02*
Y112100D01*
X172891Y189359D02*
X213895D01*
X171732Y188200D02*
X172891Y189359D01*
X169836Y191359D02*
X207459D01*
X163150Y198045D02*
X169836Y191359D01*
X213895Y189359D02*
X219463Y183791D01*
X207459Y191359D02*
X211000Y194900D01*
X204271Y186557D02*
X206937Y183891D01*
X202455Y186557D02*
X204271D01*
X201653Y187359D02*
X202455Y186557D01*
X196114Y187000D02*
X196473Y187359D01*
X190528Y187000D02*
X196114D01*
X196473Y187359D02*
X201653D01*
X188287Y184759D02*
X190528Y187000D01*
X138802Y188200D02*
X171732D01*
X174237Y182700D02*
Y183291D01*
X175706Y184759D02*
X188287D01*
X174237Y183291D02*
X175706Y184759D01*
X71300Y174400D02*
X71928Y173772D01*
X96421Y187420D02*
X100818D01*
X101598Y188200D01*
X93400Y184400D02*
X96421Y187420D01*
X62500Y160000D02*
X79961Y163657D01*
X85944Y163554D02*
X90197Y159300D01*
X80046Y163675D02*
X85220Y163847D01*
X85651D02*
X85944Y163554D01*
X79961Y163657D02*
X80046Y163675D01*
X85220Y163847D02*
X85651D01*
X74843Y165000D02*
X75726Y165883D01*
X75815Y165972D02*
Y166801D01*
X75726Y165883D02*
X75815Y165972D01*
X75630Y168137D02*
X75815Y166801D01*
X81097Y173604D02*
X82433Y173419D01*
X83262D02*
X83351Y173508D01*
X89143Y179300D01*
X82433Y173419D02*
X83262D01*
X90800Y175300D02*
X90900D01*
X93600Y172600D01*
X80430Y178804D02*
X94826Y193200D01*
X115006Y77300D02*
X116000D01*
X107540Y68751D02*
Y69834D01*
X115006Y77300D01*
X70750Y122527D02*
X71222Y122998D01*
X100318Y118520D02*
X101098Y119300D01*
X92900Y115400D02*
X96021Y118520D01*
X88900Y117057D02*
X90092Y118249D01*
X96021Y118520D02*
X100318D01*
X85900Y123269D02*
X90092Y119077D01*
X99189Y110375D02*
X147275D01*
X84900Y112086D02*
X89586Y107400D01*
X80429Y118803D02*
X84900Y114333D01*
Y112086D02*
Y114333D01*
X94557Y111400D02*
X97532Y114375D01*
X144214D01*
X86900Y112915D02*
X90415Y109400D01*
X95385D01*
X90092Y118249D02*
Y119077D01*
X98360Y112375D02*
X145055D01*
X95385Y109400D02*
X98360Y112375D01*
X88900Y113743D02*
X91243Y111400D01*
X89586Y107400D02*
X96214D01*
X86900Y112915D02*
Y119441D01*
X83900Y122441D02*
X86900Y119441D01*
X91243Y111400D02*
X94557D01*
X88900Y113743D02*
Y117057D01*
X96214Y107400D02*
X99189Y110375D01*
X91300Y125000D02*
X94700D01*
X92157Y131700D02*
X94557Y129300D01*
X91300Y131700D02*
X92157D01*
X90700Y125600D02*
X91300Y125000D01*
X94700D02*
X95200Y124500D01*
X206937Y183300D02*
Y183891D01*
X198127Y182364D02*
X199063Y183300D01*
X198127Y179827D02*
Y182364D01*
X72700Y143700D02*
X90400D01*
X71600Y144800D02*
X72700Y143700D01*
X63169Y144800D02*
X71600D01*
X61831D02*
X61877Y144846D01*
X63123D01*
X63169Y144800D01*
X90400Y143700D02*
X94800Y139300D01*
X83900Y122441D02*
Y123526D01*
X83900Y123714D02*
Y124223D01*
X85607Y131093D02*
X85900Y130800D01*
X83900Y123526D02*
X83900Y123714D01*
X85900Y123269D02*
Y130800D01*
X95200Y124500D02*
X100898D01*
X101098Y124300D01*
X82897Y133803D02*
X85607Y131093D01*
X80430Y127693D02*
X83900Y124223D01*
X99942Y129300D02*
X100495Y129853D01*
X94557Y129300D02*
X99942D01*
X80430Y138804D02*
X90433D01*
X94937Y134300D01*
X101098D01*
X100495Y129853D02*
X101098Y129250D01*
X100993Y208804D02*
X101598Y208200D01*
X80430Y208804D02*
X100993D01*
X113651Y179300D02*
X116151Y176800D01*
X89143Y179300D02*
X113651D01*
X181300Y213200D02*
X189200Y205300D01*
X138802Y213200D02*
X181300D01*
X148100Y228200D02*
X148200Y228100D01*
X138802Y228200D02*
X148100D01*
X189200Y204900D02*
Y205300D01*
X198900Y200300D02*
X202207Y203607D01*
X141517Y198045D02*
X163150D01*
X138802Y193200D02*
X139102Y192900D01*
X146481D01*
X130443Y180843D02*
X141988D01*
X145332Y177500D01*
X130400Y180800D02*
X130443Y180843D01*
X116151Y176800D02*
X141300D01*
X142800Y175300D01*
X223200Y139000D02*
X223250Y138950D01*
Y126550D02*
X223300Y126500D01*
X223250Y126550D02*
Y138950D01*
X210337Y133937D02*
Y139941D01*
X216257Y126757D02*
Y139232D01*
X216300Y139275D01*
X206600Y144200D02*
X228300D01*
X189741Y85559D02*
X190000D01*
X174367Y100933D02*
X189741Y85559D01*
X197359Y81559D02*
X202000Y86200D01*
X168247Y81559D02*
X197359D01*
X167368Y80680D02*
X168247Y81559D01*
X138802Y198200D02*
X141361D01*
X132330Y45407D02*
X138793D01*
X131937Y45800D02*
X132330Y45407D01*
X100294Y52868D02*
X101763Y51400D01*
X100294Y52868D02*
Y54283D01*
X75477Y79100D02*
X100294Y54283D01*
X75300Y79100D02*
X75477D01*
X71200Y69643D02*
Y91300D01*
X145055Y112375D02*
X145083Y112403D01*
X144214Y114375D02*
X144800Y114961D01*
Y118000D01*
X145083Y112403D02*
X146475D01*
X147684Y113612D01*
Y120216D01*
X142800Y175300D02*
X156300D01*
X152765Y169547D02*
X154039Y170822D01*
X155122D01*
X152600Y169547D02*
X152765D01*
X151756Y161997D02*
X152653Y161100D01*
X163463D01*
X93600Y172600D02*
X147759D01*
X151753Y168606D01*
X151756Y168703D02*
X152600Y169547D01*
X80472Y153957D02*
X84669Y154000D01*
X85497D02*
X90197Y149300D01*
X62500Y150000D02*
X66500Y154000D01*
X84669D02*
X85497D01*
X57700Y144800D02*
X61831D01*
X52500Y150000D02*
X57407Y145093D01*
X57700Y144800D01*
X116600Y48300D02*
Y55700D01*
X128400Y67500D01*
X135700D01*
X153500Y85300D02*
X170000D01*
X135700Y67500D02*
X153500Y85300D01*
X170000D02*
X170837Y86137D01*
Y91000D01*
X162963Y103000D02*
Y103591D01*
X156886Y91000D02*
X162963D01*
X167368Y80647D02*
Y80680D01*
X167129Y80407D02*
X167368Y80647D01*
X144261Y200300D02*
X198900D01*
X141361Y203200D02*
X144261Y200300D01*
X138802Y208200D02*
X179400D01*
X141361Y198200D02*
X141517Y198045D01*
X147275Y110375D02*
X149700Y112800D01*
X143600Y124300D02*
X147684Y120216D01*
X138302Y124300D02*
X143600D01*
X149700Y112800D02*
Y119400D01*
X143841Y118959D02*
X144800Y118000D01*
X138643Y118959D02*
X143841D01*
X62500Y140000D02*
X68697Y133803D01*
X82897D01*
X80431Y248805D02*
X81612Y247624D01*
X85944Y239358D02*
X86112Y239188D01*
X97100Y228200D01*
X81612Y244288D02*
Y247624D01*
X85908Y239468D02*
X85944Y239358D01*
X81612Y244288D02*
X82056Y243844D01*
X80430Y228804D02*
X91035Y218200D01*
X93700Y234977D02*
Y239100D01*
Y234977D02*
X95477Y233200D01*
X101598D01*
X97100Y228200D02*
X101598D01*
X172313Y100933D02*
X174367D01*
X170837Y102409D02*
X172313Y100933D01*
X74197Y108803D02*
X80429D01*
X90197Y159300D02*
X101098D01*
X90197Y149300D02*
X101098D01*
X94826Y193200D02*
X101598D01*
X89826Y198200D02*
X101598D01*
X80430Y188804D02*
X89826Y198200D01*
X80430Y198804D02*
X84826Y203200D01*
X101598D01*
X86035Y213200D02*
X101598D01*
X80430Y218804D02*
X86035Y213200D01*
X91035Y218200D02*
X101598D01*
X80430Y238804D02*
X96035Y223200D01*
X101598D01*
X91300Y170300D02*
X93600Y172600D01*
X91300Y167200D02*
X94200Y164300D01*
X91300Y167200D02*
Y170300D01*
X94200Y164300D02*
X101098D01*
X228300Y144200D02*
X292500Y80000D01*
X138802Y203200D02*
X141361D01*
X154793Y93093D02*
X156886Y91000D01*
X167129Y78628D02*
Y80407D01*
X166000Y77500D02*
X167129Y78628D01*
X162963Y77500D02*
X166000D01*
X161963Y115300D02*
Y115891D01*
X138302Y129300D02*
X138352Y129250D01*
X170837Y102409D02*
Y103000D01*
X162963Y103591D02*
X167272Y107900D01*
X188950D01*
X163563Y130900D02*
Y134991D01*
X138302Y119300D02*
X138643Y118959D01*
X227337Y182609D02*
X271800Y138146D01*
Y127100D02*
Y138146D01*
X227337Y182609D02*
Y183200D01*
X275000Y77500D02*
X292500Y60000D01*
X170837Y77500D02*
X275000D01*
X219463Y183200D02*
Y183791D01*
X80430Y127693D02*
Y128804D01*
X94800Y139300D02*
X101098D01*
X99963Y89500D02*
Y90091D01*
X98487Y91567D02*
X99963Y90091D01*
X97896Y91567D02*
X98487D01*
X90660Y98803D02*
X97896Y91567D01*
X80429Y98803D02*
X90660D01*
X90033Y79200D02*
X103800D01*
X80429Y88803D02*
X90033Y79200D01*
X62500Y100000D02*
X71200Y91300D01*
X124100Y45837D02*
Y53900D01*
X124063Y45800D02*
X124100Y45837D01*
X92624Y35633D02*
Y39568D01*
X94591D01*
X95247Y38912D01*
Y37600D01*
X94591Y36944D01*
X92624D01*
X93936D02*
X95247Y35633D01*
X98527D02*
X97215D01*
X96559Y36289D01*
Y37600D01*
X97215Y38256D01*
X98527D01*
X99183Y37600D01*
Y36944D01*
X96559D01*
X100495Y35633D02*
X102463D01*
X103119Y36289D01*
X102463Y36944D01*
X101151D01*
X100495Y37600D01*
X101151Y38256D01*
X103119D01*
X106399Y35633D02*
X105087D01*
X104431Y36289D01*
Y37600D01*
X105087Y38256D01*
X106399D01*
X107055Y37600D01*
Y36944D01*
X104431D01*
X109022Y38912D02*
Y38256D01*
X108367D01*
X109678D01*
X109022D01*
Y36289D01*
X109678Y35633D01*
X16502Y83400D02*
X22500D01*
X20501D01*
X16502Y87399D01*
X19501Y84400D01*
X22500Y87399D01*
Y89398D02*
Y91397D01*
Y90398D01*
X18501D01*
Y89398D01*
Y94396D02*
X22500D01*
X20501D01*
X19501Y95396D01*
X18501Y96396D01*
Y97395D01*
Y101394D02*
Y103393D01*
X19501Y104393D01*
X22500D01*
Y101394D01*
X21500Y100394D01*
X20501Y101394D01*
Y104393D01*
X22500Y106393D02*
Y108392D01*
Y107392D01*
X16502D01*
Y106393D01*
X18501Y111391D02*
X21500D01*
X22500Y112391D01*
Y115390D01*
X23500D01*
X24499Y114390D01*
Y113390D01*
X22500Y115390D02*
X18501D01*
X16502Y123387D02*
X22500D01*
X20501D01*
X16502Y127386D01*
X19501Y124387D01*
X22500Y127386D01*
X18501Y129385D02*
X22500D01*
X20501D01*
X19501Y130385D01*
X18501Y131385D01*
Y132384D01*
X22500Y135383D02*
Y137382D01*
Y136383D01*
X18501D01*
Y135383D01*
X22500Y140382D02*
Y143381D01*
X21500Y144380D01*
X20501Y143381D01*
Y141381D01*
X19501Y140382D01*
X18501Y141381D01*
Y144380D01*
Y146380D02*
Y150378D01*
X22500Y146380D01*
Y150378D01*
X17502Y153377D02*
X18501D01*
Y152378D01*
Y154377D01*
Y153377D01*
X21500D01*
X22500Y154377D01*
Y157376D02*
Y159375D01*
Y158376D01*
X18501D01*
Y157376D01*
X22500Y162374D02*
X18501D01*
Y165374D01*
X19501Y166373D01*
X22500D01*
X18501Y169372D02*
Y171371D01*
X19501Y172371D01*
X22500D01*
Y169372D01*
X21500Y168372D01*
X20501Y169372D01*
Y172371D01*
X184005Y41524D02*
Y37588D01*
X186628D01*
X187940D02*
X189252D01*
X188596D01*
Y40212D01*
X187940D01*
X192532Y36276D02*
X193188D01*
X193844Y36932D01*
Y40212D01*
X191876D01*
X191220Y39556D01*
Y38244D01*
X191876Y37588D01*
X193844D01*
X195156Y41524D02*
Y37588D01*
Y39556D01*
X195812Y40212D01*
X197124D01*
X197780Y39556D01*
Y37588D01*
X199748Y40868D02*
Y40212D01*
X199092D01*
X200404D01*
X199748D01*
Y38244D01*
X200404Y37588D01*
X202372Y39556D02*
X204995D01*
X203683Y40868D02*
Y38244D01*
X234805Y39724D02*
Y35788D01*
X237428D01*
X238740D02*
X240052D01*
X239396D01*
Y38412D01*
X238740D01*
X243332Y34476D02*
X243988D01*
X244644Y35132D01*
Y38412D01*
X242676D01*
X242020Y37756D01*
Y36444D01*
X242676Y35788D01*
X244644D01*
X245956Y39724D02*
Y35788D01*
Y37756D01*
X246612Y38412D01*
X247924D01*
X248580Y37756D01*
Y35788D01*
X250548Y39068D02*
Y38412D01*
X249892D01*
X251204D01*
X250548D01*
Y36444D01*
X251204Y35788D01*
X253171Y37756D02*
X255795D01*
X145045Y40532D02*
Y44468D01*
X147012D01*
X147668Y43812D01*
Y42500D01*
X147012Y41844D01*
X145045D01*
X148980Y40532D02*
X150292D01*
X149636D01*
Y44468D01*
X148980D01*
X152916Y43156D02*
X154228D01*
X154884Y42500D01*
Y40532D01*
X152916D01*
X152260Y41188D01*
X152916Y41844D01*
X154884D01*
X158820Y43156D02*
X156852D01*
X156196Y42500D01*
Y41188D01*
X156852Y40532D01*
X158820D01*
X162100D02*
X160788D01*
X160132Y41188D01*
Y42500D01*
X160788Y43156D01*
X162100D01*
X162755Y42500D01*
Y41844D01*
X160132D01*
D29*
X260913Y29558D02*
D03*
X225087D02*
D03*
Y11842D02*
D03*
X260913D02*
D03*
X211013Y29658D02*
D03*
X175187D02*
D03*
Y11942D02*
D03*
X211013D02*
D03*
X161813Y29858D02*
D03*
X125987D02*
D03*
Y12142D02*
D03*
X161813D02*
D03*
X110613Y12542D02*
D03*
X74787D02*
D03*
Y30258D02*
D03*
X110613D02*
D03*
D30*
X163463Y161100D02*
D03*
X171337D02*
D03*
X131937Y45800D02*
D03*
X124063D02*
D03*
X101763Y51400D02*
D03*
X109637D02*
D03*
X162963Y77500D02*
D03*
X170837D02*
D03*
X162963Y91000D02*
D03*
X170837D02*
D03*
X162963Y103000D02*
D03*
X170837D02*
D03*
X161963Y115300D02*
D03*
X169837D02*
D03*
X163563Y130900D02*
D03*
X171437D02*
D03*
X163763Y147600D02*
D03*
X171637D02*
D03*
X219463Y183200D02*
D03*
X227337D02*
D03*
X206937Y183300D02*
D03*
X199063D02*
D03*
X166363Y182700D02*
D03*
X174237D02*
D03*
X99963Y89500D02*
D03*
X107837D02*
D03*
X133200Y76000D02*
D03*
X125326D02*
D03*
D31*
X104500Y273500D02*
D03*
Y256500D02*
D03*
D32*
X101598Y233200D02*
D03*
Y228200D02*
D03*
Y223200D02*
D03*
Y218200D02*
D03*
Y213200D02*
D03*
Y208200D02*
D03*
Y203200D02*
D03*
Y198200D02*
D03*
Y193200D02*
D03*
Y188200D02*
D03*
X138802D02*
D03*
Y193200D02*
D03*
Y198200D02*
D03*
Y203200D02*
D03*
Y208200D02*
D03*
Y213200D02*
D03*
Y218200D02*
D03*
Y223200D02*
D03*
Y228200D02*
D03*
Y233200D02*
D03*
X138302Y164300D02*
D03*
Y159300D02*
D03*
Y154300D02*
D03*
Y149300D02*
D03*
Y144300D02*
D03*
Y139300D02*
D03*
Y134300D02*
D03*
Y129300D02*
D03*
Y124300D02*
D03*
Y119300D02*
D03*
X101098D02*
D03*
Y124300D02*
D03*
Y129300D02*
D03*
Y134300D02*
D03*
Y139300D02*
D03*
Y144300D02*
D03*
Y149300D02*
D03*
Y154300D02*
D03*
Y159300D02*
D03*
Y164300D02*
D03*
D33*
X103800Y79200D02*
D03*
X100060Y68751D02*
D03*
X107540D02*
D03*
D34*
X184500Y230000D02*
D03*
X166390D02*
D03*
D35*
X153403Y149046D02*
X153607Y149249D01*
Y150652D01*
X157455Y154500D01*
X169031D01*
X55312Y279600D02*
X55600D01*
X26600Y277900D02*
X53612D01*
X55312Y279600D01*
X154697Y229203D02*
X154900Y229000D01*
X154697Y229203D02*
Y235103D01*
X154300Y235500D02*
X154697Y235103D01*
X166363Y175222D02*
Y182700D01*
X171337Y156806D02*
Y161100D01*
Y165406D02*
X174100Y168169D01*
X171337Y161100D02*
Y165406D01*
X174100Y168169D02*
Y168300D01*
X138399Y164397D02*
X146197D01*
X136900Y76000D02*
X145800Y84900D01*
X143050Y105812D02*
Y105900D01*
Y105812D02*
X145800Y103062D01*
Y84900D02*
Y103062D01*
X169031Y154500D02*
X171337Y156806D01*
X142100Y233200D02*
X144400Y235500D01*
X138802Y233200D02*
X142100D01*
X144400Y235500D02*
X154300D01*
X157700Y238900D01*
X94800Y289500D02*
X99600D01*
X104500Y284600D01*
X133200Y76000D02*
X136900D01*
X133200D02*
Y85400D01*
X104500Y273500D02*
Y284600D01*
X210600Y271900D02*
X292500Y190000D01*
X150900Y271900D02*
X210600D01*
X147100Y263500D02*
Y268100D01*
X150900Y271900D01*
X140100Y256500D02*
X147100Y263500D01*
X91400Y260800D02*
Y267835D01*
X80431Y278805D02*
X91400Y267835D01*
Y260800D02*
X95700Y256500D01*
X104500D01*
X140100D02*
X157700Y238900D01*
X104500Y256500D02*
X140100D01*
X107837Y89500D02*
X129100D01*
X133200Y85400D01*
X166390Y230000D02*
Y236010D01*
X163500Y238900D02*
X166390Y236010D01*
X157700Y238900D02*
X163500D01*
D36*
X26600Y277900D02*
D03*
Y252900D02*
D03*
X46600Y265400D02*
D03*
D37*
X60200Y305300D02*
D03*
X50200Y295300D02*
D03*
D38*
Y315300D02*
D03*
D39*
X62500Y20000D02*
D03*
X52500D02*
D03*
X302500D02*
D03*
X292500D02*
D03*
Y30000D02*
D03*
X302500D02*
D03*
X292500Y40000D02*
D03*
X302500D02*
D03*
X292500Y50000D02*
D03*
X302500D02*
D03*
X292500Y60000D02*
D03*
X302500D02*
D03*
X292500Y70000D02*
D03*
X302500D02*
D03*
X292500Y80000D02*
D03*
X302500D02*
D03*
X292500Y90000D02*
D03*
X302500D02*
D03*
X292500Y100000D02*
D03*
X302500D02*
D03*
X292500Y110000D02*
D03*
X302500D02*
D03*
X292500Y120000D02*
D03*
X302500D02*
D03*
X292500Y130000D02*
D03*
X302500D02*
D03*
X292500Y140000D02*
D03*
X302500D02*
D03*
X292500Y150000D02*
D03*
X302500D02*
D03*
X292500Y160000D02*
D03*
X302500D02*
D03*
X292500Y170000D02*
D03*
X302500D02*
D03*
X292500Y180000D02*
D03*
X302500D02*
D03*
X292500Y190000D02*
D03*
X302500D02*
D03*
X292500Y200000D02*
D03*
X302500D02*
D03*
X292500Y210000D02*
D03*
X52500Y30000D02*
D03*
X62500D02*
D03*
X52500Y40000D02*
D03*
X62500D02*
D03*
X52500Y50000D02*
D03*
X62500D02*
D03*
X52500Y60000D02*
D03*
X62500D02*
D03*
X52500Y70000D02*
D03*
X62500D02*
D03*
X52500Y80000D02*
D03*
X62500D02*
D03*
X52500Y90000D02*
D03*
X62500D02*
D03*
X52500Y100000D02*
D03*
X62500D02*
D03*
X52500Y110000D02*
D03*
X62500D02*
D03*
X52500Y120000D02*
D03*
X62500D02*
D03*
X52500Y130000D02*
D03*
X62500D02*
D03*
X52500Y140000D02*
D03*
X62500D02*
D03*
X52500Y150000D02*
D03*
X62500D02*
D03*
X52500Y160000D02*
D03*
X62500D02*
D03*
X52500Y170000D02*
D03*
X62500D02*
D03*
X52500Y180000D02*
D03*
X62500D02*
D03*
X52500Y190000D02*
D03*
X62500D02*
D03*
X52500Y200000D02*
D03*
X62500D02*
D03*
X52500Y210000D02*
D03*
X80431Y258805D02*
D03*
Y248805D02*
D03*
Y268805D02*
D03*
X80430Y218804D02*
D03*
Y208804D02*
D03*
Y228804D02*
D03*
Y238804D02*
D03*
X80430Y178804D02*
D03*
Y168804D02*
D03*
Y188804D02*
D03*
Y198804D02*
D03*
X80430Y138804D02*
D03*
Y128804D02*
D03*
Y148804D02*
D03*
Y158804D02*
D03*
X80429Y98803D02*
D03*
Y88803D02*
D03*
Y108803D02*
D03*
Y118803D02*
D03*
D40*
X302500Y210000D02*
D03*
X62500D02*
D03*
D41*
X80431Y278805D02*
D03*
D42*
Y321600D02*
D03*
X276100D02*
D03*
Y46009D02*
D03*
X80431D02*
D03*
D43*
X335700Y328700D02*
D03*
X20700D02*
D03*
X335000Y20000D02*
D03*
X20000D02*
D03*
D44*
X147600Y139000D02*
D03*
X153403Y149046D02*
D03*
X181600Y138600D02*
D03*
X182300Y125500D02*
D03*
X75400Y71100D02*
D03*
X219800Y45400D02*
D03*
X55600Y279600D02*
D03*
X154900Y229000D02*
D03*
X154631Y223006D02*
D03*
X166363Y175222D02*
D03*
X174100Y168300D02*
D03*
X146197Y164397D02*
D03*
X150814Y155705D02*
D03*
X139700Y99300D02*
D03*
X151050Y129250D02*
D03*
X159720Y149031D02*
D03*
X166123Y218200D02*
D03*
X197000Y128700D02*
D03*
X202000Y112500D02*
D03*
X93700Y239100D02*
D03*
X116000Y77300D02*
D03*
X71928Y173772D02*
D03*
X93400Y184400D02*
D03*
X90800Y175300D02*
D03*
X71222Y122998D02*
D03*
X92900Y115400D02*
D03*
X91300Y131700D02*
D03*
X90700Y125600D02*
D03*
X94800Y289500D02*
D03*
X148200Y228100D02*
D03*
X179400Y208200D02*
D03*
X189200Y204900D02*
D03*
X202207Y203607D02*
D03*
X211000Y194900D02*
D03*
X146781Y192381D02*
D03*
X130400Y180800D02*
D03*
X223300Y126500D02*
D03*
X223200Y139000D02*
D03*
X216300Y139275D02*
D03*
X210337Y139941D02*
D03*
X216257Y126757D02*
D03*
X271800Y127100D02*
D03*
X188950Y107900D02*
D03*
X190000Y85559D02*
D03*
X138793Y45407D02*
D03*
X154793Y93093D02*
D03*
X124100Y53900D02*
D03*
X131100Y61900D02*
D03*
X75300Y79100D02*
D03*
X130100Y99300D02*
D03*
X143050Y105900D02*
D03*
X155122Y170822D02*
D03*
M02*
