G04*
G04 #@! TF.GenerationSoftware,Altium Limited,Altium Designer,24.2.2 (26)*
G04*
G04 Layer_Physical_Order=2*
G04 Layer_Color=16711680*
%FSLAX25Y25*%
%MOIN*%
G70*
G04*
G04 #@! TF.SameCoordinates,7880CA01-A185-4AAC-BB8A-744F794AF487*
G04*
G04*
G04 #@! TF.FilePolarity,Positive*
G04*
G01*
G75*
%ADD10C,0.01000*%
%ADD35C,0.03937*%
%ADD36C,0.18000*%
%ADD37C,0.04811*%
%ADD38R,0.04811X0.04811*%
%ADD39C,0.06693*%
%ADD40R,0.06693X0.06693*%
%ADD41R,0.06693X0.06693*%
%ADD42C,0.19685*%
%ADD43C,0.23622*%
%ADD44C,0.05000*%
G36*
X38000Y305600D02*
X55795D01*
Y304720D01*
X56095Y303600D01*
X56675Y302595D01*
X57495Y301775D01*
X58499Y301195D01*
X59620Y300894D01*
X60780D01*
X61901Y301195D01*
X62905Y301775D01*
X63725Y302595D01*
X64305Y303600D01*
X64605Y304720D01*
Y305600D01*
X313500D01*
Y12653D01*
X313038Y12462D01*
X312400Y13100D01*
X192549D01*
Y81835D01*
X192763Y81958D01*
X193601Y82796D01*
X194193Y83822D01*
X194500Y84967D01*
Y86151D01*
X194376Y86613D01*
X194681Y87010D01*
X206885D01*
X217751Y76144D01*
Y49413D01*
X217037Y49001D01*
X216199Y48163D01*
X215607Y47137D01*
X215300Y45992D01*
Y44808D01*
X215607Y43663D01*
X216199Y42637D01*
X217037Y41799D01*
X218063Y41207D01*
X219208Y40900D01*
X220392D01*
X221537Y41207D01*
X222563Y41799D01*
X223401Y42637D01*
X223993Y43663D01*
X224300Y44808D01*
Y45992D01*
X223993Y47137D01*
X223401Y48163D01*
X222849Y48715D01*
Y77200D01*
X222655Y78175D01*
X222102Y79002D01*
X209743Y91361D01*
X208916Y91914D01*
X207941Y92108D01*
X188343D01*
X187368Y91914D01*
X186541Y91361D01*
X158391Y63212D01*
X157869Y62431D01*
X143129Y47690D01*
X142633Y47756D01*
X142394Y48170D01*
X141556Y49008D01*
X141549Y49012D01*
Y50400D01*
X141355Y51376D01*
X140802Y52202D01*
X138249Y54756D01*
Y94619D01*
X138646Y94924D01*
X139108Y94800D01*
X140292D01*
X141437Y95107D01*
X142463Y95699D01*
X143301Y96537D01*
X143424Y96751D01*
X144600D01*
X145575Y96945D01*
X146402Y97498D01*
X148852Y99948D01*
X149405Y100775D01*
X149599Y101750D01*
Y124569D01*
X149996Y124874D01*
X150458Y124750D01*
X151642D01*
X152787Y125057D01*
X153813Y125649D01*
X154651Y126487D01*
X154774Y126701D01*
X156594D01*
X159498Y123798D01*
X160325Y123245D01*
X161300Y123051D01*
X178518D01*
X178699Y122737D01*
X179537Y121899D01*
X180563Y121307D01*
X181708Y121000D01*
X182892D01*
X184037Y121307D01*
X185063Y121899D01*
X185901Y122737D01*
X186493Y123763D01*
X186800Y124908D01*
Y126092D01*
X186493Y127237D01*
X185901Y128263D01*
X185063Y129101D01*
X184037Y129693D01*
X182892Y130000D01*
X181708D01*
X180563Y129693D01*
X179537Y129101D01*
X178699Y128263D01*
X178633Y128149D01*
X162356D01*
X159452Y131052D01*
X158625Y131605D01*
X157650Y131799D01*
X154774D01*
X154651Y132013D01*
X153813Y132851D01*
X152787Y133443D01*
X151642Y133750D01*
X150755D01*
Y135791D01*
X151201Y136237D01*
X151793Y137263D01*
X152100Y138408D01*
Y139592D01*
X151793Y140737D01*
X151201Y141763D01*
X150363Y142601D01*
X149337Y143193D01*
X149440Y143683D01*
X149853D01*
X150889Y143820D01*
X151854Y144220D01*
X152417Y144651D01*
X152811Y144546D01*
X153996D01*
X155140Y144853D01*
X156167Y145445D01*
X156554Y145833D01*
X156957Y145431D01*
X157983Y144838D01*
X159128Y144532D01*
X160312D01*
X161457Y144838D01*
X162483Y145431D01*
X163321Y146268D01*
X163913Y147295D01*
X164220Y148439D01*
Y149624D01*
X163913Y150768D01*
X163321Y151795D01*
X163048Y152067D01*
X163261Y152561D01*
X164072Y152723D01*
X164899Y153275D01*
X169265Y157642D01*
X169818Y158468D01*
X170012Y159444D01*
Y164832D01*
X169917Y165312D01*
X169970Y165369D01*
X170373Y165580D01*
X170731Y165305D01*
X171337Y164699D01*
X172363Y164107D01*
X173508Y163800D01*
X174692D01*
X175837Y164107D01*
X176863Y164699D01*
X177701Y165537D01*
X178293Y166563D01*
X178451Y167152D01*
X178951Y167086D01*
Y142267D01*
X178837Y142201D01*
X177999Y141363D01*
X177407Y140337D01*
X177100Y139192D01*
Y138008D01*
X177407Y136863D01*
X177999Y135837D01*
X178837Y134999D01*
X179863Y134407D01*
X181008Y134100D01*
X182192D01*
X183337Y134407D01*
X184363Y134999D01*
X185201Y135837D01*
X185793Y136863D01*
X186100Y138008D01*
Y139192D01*
X185793Y140337D01*
X185201Y141363D01*
X184363Y142201D01*
X184049Y142382D01*
Y198200D01*
X183855Y199176D01*
X183302Y200002D01*
X180083Y203222D01*
X180244Y203767D01*
X181137Y204007D01*
X182163Y204599D01*
X183001Y205437D01*
X183593Y206463D01*
X183724Y206951D01*
X184665D01*
X184957Y206451D01*
X184700Y205492D01*
Y204308D01*
X185007Y203163D01*
X185599Y202137D01*
X186437Y201299D01*
X187463Y200707D01*
X187751Y200629D01*
Y112238D01*
X187213Y112093D01*
X186187Y111501D01*
X185349Y110663D01*
X184757Y109637D01*
X184450Y108492D01*
Y107308D01*
X184757Y106163D01*
X185349Y105137D01*
X186187Y104299D01*
X187213Y103707D01*
X188358Y103400D01*
X189542D01*
X190687Y103707D01*
X191713Y104299D01*
X192551Y105137D01*
X193143Y106163D01*
X193450Y107308D01*
Y108492D01*
X193143Y109637D01*
X192822Y110194D01*
X192849Y110332D01*
Y125924D01*
X193332Y126053D01*
X193399Y125937D01*
X194237Y125099D01*
X195263Y124507D01*
X196408Y124200D01*
X197592D01*
X198737Y124507D01*
X199763Y125099D01*
X200601Y125937D01*
X201193Y126963D01*
X201500Y128108D01*
Y129292D01*
X201226Y130313D01*
X203264Y132351D01*
X229800D01*
X230775Y132545D01*
X231602Y133098D01*
X233800Y135295D01*
X236096Y133000D01*
X236923Y132447D01*
X237898Y132253D01*
X242290D01*
X242300Y132251D01*
X287079D01*
X287434Y131751D01*
X287154Y130704D01*
Y129296D01*
X287518Y127936D01*
X288222Y126717D01*
X289217Y125722D01*
X290436Y125018D01*
X291499Y124733D01*
Y124215D01*
X290828Y124036D01*
X289841Y123465D01*
X289035Y122659D01*
X288464Y121672D01*
X288175Y120591D01*
X292500D01*
X296825D01*
X296536Y121672D01*
X295965Y122659D01*
X295159Y123465D01*
X294172Y124036D01*
X293500Y124215D01*
Y124733D01*
X294564Y125018D01*
X295783Y125722D01*
X296778Y126717D01*
X297211Y127467D01*
X297789D01*
X298222Y126717D01*
X299217Y125722D01*
X300436Y125018D01*
X301500Y124733D01*
Y124215D01*
X300828Y124036D01*
X299841Y123465D01*
X299035Y122659D01*
X298464Y121672D01*
X298175Y120591D01*
X302500D01*
X306825D01*
X306536Y121672D01*
X305965Y122659D01*
X305159Y123465D01*
X304172Y124036D01*
X303501Y124215D01*
Y124733D01*
X304564Y125018D01*
X305783Y125722D01*
X306778Y126717D01*
X307482Y127936D01*
X307846Y129296D01*
Y130704D01*
X307482Y132064D01*
X306778Y133283D01*
X305783Y134278D01*
X305033Y134711D01*
Y135289D01*
X305783Y135722D01*
X306778Y136717D01*
X307482Y137936D01*
X307846Y139296D01*
Y140704D01*
X307482Y142064D01*
X306778Y143283D01*
X305783Y144278D01*
X305033Y144711D01*
Y145289D01*
X305783Y145722D01*
X306778Y146717D01*
X307482Y147936D01*
X307846Y149296D01*
Y150704D01*
X307482Y152064D01*
X306778Y153283D01*
X305783Y154278D01*
X305033Y154711D01*
Y155289D01*
X305783Y155722D01*
X306778Y156717D01*
X307482Y157936D01*
X307846Y159296D01*
Y160704D01*
X307482Y162064D01*
X306778Y163283D01*
X305783Y164278D01*
X305033Y164711D01*
Y165289D01*
X305783Y165722D01*
X306778Y166717D01*
X307482Y167936D01*
X307846Y169296D01*
Y170704D01*
X307482Y172064D01*
X306778Y173283D01*
X305783Y174278D01*
X305033Y174711D01*
Y175289D01*
X305783Y175722D01*
X306778Y176717D01*
X307482Y177936D01*
X307846Y179296D01*
Y180704D01*
X307482Y182064D01*
X306778Y183283D01*
X305783Y184278D01*
X305033Y184711D01*
Y185289D01*
X305783Y185722D01*
X306778Y186717D01*
X307482Y187936D01*
X307846Y189296D01*
Y190704D01*
X307482Y192064D01*
X306778Y193283D01*
X305783Y194278D01*
X305033Y194711D01*
Y195289D01*
X305783Y195722D01*
X306778Y196717D01*
X307482Y197936D01*
X307846Y199296D01*
Y200704D01*
X307482Y202064D01*
X306778Y203283D01*
X305908Y204153D01*
X306084Y204654D01*
X307846D01*
Y215347D01*
X297153D01*
Y213584D01*
X296654Y213407D01*
X295783Y214278D01*
X294564Y214982D01*
X293204Y215347D01*
X291796D01*
X290436Y214982D01*
X289217Y214278D01*
X288222Y213283D01*
X287518Y212064D01*
X287154Y210704D01*
Y209296D01*
X287518Y207936D01*
X288222Y206717D01*
X289217Y205722D01*
X289967Y205289D01*
Y204711D01*
X289217Y204278D01*
X288222Y203283D01*
X287518Y202064D01*
X287154Y200704D01*
Y199296D01*
X287518Y197936D01*
X288222Y196717D01*
X289217Y195722D01*
X289967Y195289D01*
Y194711D01*
X289217Y194278D01*
X288222Y193283D01*
X287518Y192064D01*
X287154Y190704D01*
Y189296D01*
X287518Y187936D01*
X288222Y186717D01*
X289217Y185722D01*
X290436Y185018D01*
X291499Y184733D01*
Y184215D01*
X290828Y184036D01*
X289841Y183465D01*
X289035Y182659D01*
X288464Y181672D01*
X288175Y180591D01*
X292500D01*
Y179409D01*
X288175D01*
X288464Y178328D01*
X289035Y177341D01*
X289841Y176535D01*
X290828Y175964D01*
X291499Y175785D01*
Y175267D01*
X290436Y174982D01*
X289217Y174278D01*
X288222Y173283D01*
X287518Y172064D01*
X287154Y170704D01*
Y169296D01*
X287518Y167936D01*
X288222Y166717D01*
X289217Y165722D01*
X289967Y165289D01*
Y164711D01*
X289217Y164278D01*
X288222Y163283D01*
X287518Y162064D01*
X287154Y160704D01*
Y159296D01*
X287518Y157936D01*
X288222Y156717D01*
X289217Y155722D01*
X289967Y155289D01*
Y154711D01*
X289217Y154278D01*
X288222Y153283D01*
X287518Y152064D01*
X287154Y150704D01*
Y149296D01*
X287518Y147936D01*
X288222Y146717D01*
X289217Y145722D01*
X289967Y145289D01*
Y144711D01*
X289217Y144278D01*
X288222Y143283D01*
X287518Y142064D01*
X287154Y140704D01*
Y139296D01*
X287518Y137936D01*
X287607Y137782D01*
X287357Y137349D01*
X242308D01*
X242298Y137351D01*
X238954D01*
X236349Y139956D01*
Y233300D01*
X236155Y234275D01*
X235602Y235102D01*
X226002Y244702D01*
X225175Y245255D01*
X224200Y245449D01*
X97500D01*
X96525Y245255D01*
X95698Y244702D01*
X94531Y243536D01*
X94292Y243600D01*
X93108D01*
X91963Y243293D01*
X90937Y242701D01*
X90099Y241863D01*
X89507Y240837D01*
X89200Y239692D01*
Y238508D01*
X89507Y237363D01*
X90099Y236337D01*
X90937Y235499D01*
X91963Y234907D01*
X93108Y234600D01*
X94292D01*
X95437Y234907D01*
X96463Y235499D01*
X97301Y236337D01*
X97893Y237363D01*
X98200Y238508D01*
Y239692D01*
X98136Y239931D01*
X98556Y240351D01*
X223144D01*
X231251Y232244D01*
Y139956D01*
X228744Y137449D01*
X227854D01*
X227549Y137846D01*
X227700Y138408D01*
Y139592D01*
X227393Y140737D01*
X226801Y141763D01*
X225963Y142601D01*
X225949Y142609D01*
Y188157D01*
X225755Y189132D01*
X225202Y189959D01*
X209859Y205302D01*
X209032Y205855D01*
X208057Y206049D01*
X205993D01*
X205808Y206370D01*
X204970Y207208D01*
X203944Y207800D01*
X202799Y208107D01*
X201614D01*
X200470Y207800D01*
X199444Y207208D01*
X198606Y206370D01*
X198367Y205956D01*
X197871Y205890D01*
X192459Y211302D01*
X191632Y211855D01*
X190657Y212049D01*
X181762D01*
X181741Y212045D01*
X181137Y212393D01*
X179992Y212700D01*
X178808D01*
X177663Y212393D01*
X176637Y211801D01*
X175799Y210963D01*
X175207Y209937D01*
X174968Y209044D01*
X174422Y208883D01*
X168865Y214440D01*
X168886Y214599D01*
X169724Y215437D01*
X170316Y216463D01*
X170623Y217608D01*
Y218792D01*
X170316Y219937D01*
X169724Y220963D01*
X168886Y221801D01*
X167860Y222393D01*
X166715Y222700D01*
X165530D01*
X164603Y222451D01*
X164103Y222758D01*
Y225271D01*
X163966Y226307D01*
X163567Y227273D01*
X162930Y228101D01*
X159405Y231627D01*
X158576Y232263D01*
X157610Y232663D01*
X157539Y232672D01*
X156637Y233193D01*
X155492Y233500D01*
X154308D01*
X153163Y233193D01*
X152137Y232601D01*
X151299Y231763D01*
X150827Y231780D01*
X149937Y232293D01*
X148792Y232600D01*
X147608D01*
X146463Y232293D01*
X145437Y231701D01*
X144599Y230863D01*
X144007Y229837D01*
X143700Y228692D01*
Y227508D01*
X144007Y226363D01*
X144599Y225337D01*
X145437Y224499D01*
X145651Y224376D01*
Y202922D01*
X145845Y201946D01*
X146398Y201119D01*
X148125Y199392D01*
X147933Y198930D01*
X130631D01*
X129655Y198736D01*
X128828Y198184D01*
X101998Y171353D01*
X96768D01*
X96652Y171634D01*
X96611Y171853D01*
X97155Y172668D01*
X97349Y173643D01*
Y181918D01*
X97155Y182893D01*
X96602Y183720D01*
X95949Y184373D01*
Y184400D01*
X95755Y185375D01*
X95202Y186202D01*
X94375Y186755D01*
X93400Y186949D01*
X92424Y186755D01*
X91598Y186202D01*
X91045Y185375D01*
X90851Y184400D01*
Y183318D01*
X91045Y182342D01*
X91598Y181515D01*
X92251Y180862D01*
Y179981D01*
X91854Y179676D01*
X91392Y179800D01*
X90208D01*
X89825Y180208D01*
Y188812D01*
X89631Y189787D01*
X89079Y190614D01*
X84440Y195253D01*
X84708Y195521D01*
X85412Y196740D01*
X85777Y198100D01*
Y199508D01*
X85412Y200868D01*
X84708Y202087D01*
X83713Y203082D01*
X82963Y203516D01*
Y204093D01*
X83713Y204526D01*
X84709Y205522D01*
X85413Y206741D01*
X85777Y208101D01*
Y209508D01*
X85413Y210868D01*
X84709Y212087D01*
X83713Y213083D01*
X82963Y213516D01*
Y214093D01*
X83713Y214526D01*
X84709Y215522D01*
X85413Y216741D01*
X85777Y218101D01*
Y219508D01*
X85413Y220868D01*
X84709Y222087D01*
X83713Y223083D01*
X82963Y223516D01*
Y224093D01*
X83713Y224526D01*
X84709Y225522D01*
X85413Y226741D01*
X85777Y228100D01*
Y229508D01*
X85413Y230868D01*
X84709Y232087D01*
X83713Y233083D01*
X82963Y233516D01*
Y234093D01*
X83713Y234526D01*
X84709Y235522D01*
X85413Y236741D01*
X85777Y238101D01*
Y239508D01*
X85413Y240868D01*
X84709Y242087D01*
X83713Y243083D01*
X82963Y243516D01*
Y244093D01*
X83714Y244527D01*
X84709Y245522D01*
X85413Y246741D01*
X85777Y248101D01*
Y249509D01*
X85413Y250868D01*
X84709Y252087D01*
X83714Y253083D01*
X82963Y253516D01*
Y254093D01*
X83714Y254526D01*
X84709Y255522D01*
X85413Y256741D01*
X85777Y258101D01*
Y259509D01*
X85413Y260868D01*
X84709Y262087D01*
X83714Y263083D01*
X82494Y263787D01*
X81431Y264072D01*
Y264589D01*
X82102Y264769D01*
X83090Y265339D01*
X83896Y266146D01*
X84466Y267133D01*
X84756Y268214D01*
X80431D01*
X76105D01*
X76395Y267133D01*
X76965Y266146D01*
X77772Y265339D01*
X78759Y264769D01*
X79430Y264589D01*
Y264072D01*
X78367Y263787D01*
X77148Y263083D01*
X76152Y262087D01*
X75449Y260868D01*
X75084Y259509D01*
Y258101D01*
X75449Y256741D01*
X76152Y255522D01*
X77148Y254526D01*
X77898Y254093D01*
Y253516D01*
X77148Y253083D01*
X76152Y252087D01*
X75449Y250868D01*
X75084Y249509D01*
Y248101D01*
X75449Y246741D01*
X76152Y245522D01*
X77148Y244527D01*
X77898Y244093D01*
Y243516D01*
X77148Y243083D01*
X76152Y242087D01*
X75448Y240868D01*
X75084Y239508D01*
Y238101D01*
X75448Y236741D01*
X76152Y235522D01*
X77148Y234526D01*
X77898Y234093D01*
Y233516D01*
X77148Y233083D01*
X76152Y232087D01*
X75448Y230868D01*
X75084Y229508D01*
Y228100D01*
X75448Y226741D01*
X76152Y225522D01*
X77148Y224526D01*
X77898Y224093D01*
Y223516D01*
X77148Y223083D01*
X76152Y222087D01*
X75448Y220868D01*
X75084Y219508D01*
Y218101D01*
X75448Y216741D01*
X76152Y215522D01*
X77148Y214526D01*
X77898Y214093D01*
Y213516D01*
X77148Y213083D01*
X76152Y212087D01*
X75448Y210868D01*
X75084Y209508D01*
Y208101D01*
X75448Y206741D01*
X76152Y205522D01*
X77148Y204526D01*
X77898Y204093D01*
Y203516D01*
X77147Y203082D01*
X76152Y202087D01*
X75448Y200868D01*
X75084Y199508D01*
Y198100D01*
X75448Y196740D01*
X76152Y195521D01*
X76420Y195253D01*
X73781Y192614D01*
X73229Y191787D01*
X73035Y190812D01*
Y187442D01*
X67912Y182319D01*
X67287Y182402D01*
X66778Y183283D01*
X65783Y184278D01*
X65033Y184711D01*
Y185289D01*
X65783Y185722D01*
X66778Y186717D01*
X67482Y187936D01*
X67847Y189296D01*
Y190704D01*
X67482Y192064D01*
X66778Y193283D01*
X65783Y194278D01*
X65033Y194711D01*
Y195289D01*
X65783Y195722D01*
X66778Y196717D01*
X67482Y197936D01*
X67847Y199296D01*
Y200704D01*
X67482Y202064D01*
X66778Y203283D01*
X65908Y204153D01*
X66084Y204654D01*
X67847D01*
Y215347D01*
X57153D01*
Y213584D01*
X56653Y213407D01*
X55783Y214278D01*
X54564Y214982D01*
X53204Y215347D01*
X51796D01*
X50436Y214982D01*
X49217Y214278D01*
X48222Y213283D01*
X47518Y212064D01*
X47154Y210704D01*
Y209296D01*
X47518Y207936D01*
X48222Y206717D01*
X49217Y205722D01*
X49967Y205289D01*
Y204711D01*
X49217Y204278D01*
X48222Y203283D01*
X47518Y202064D01*
X47154Y200704D01*
Y199296D01*
X47518Y197936D01*
X48222Y196717D01*
X49217Y195722D01*
X49967Y195289D01*
Y194711D01*
X49217Y194278D01*
X48222Y193283D01*
X47518Y192064D01*
X47154Y190704D01*
Y189296D01*
X47518Y187936D01*
X48222Y186717D01*
X49217Y185722D01*
X49967Y185289D01*
Y184711D01*
X49217Y184278D01*
X48222Y183283D01*
X47518Y182064D01*
X47154Y180704D01*
Y179296D01*
X47518Y177936D01*
X48222Y176717D01*
X49217Y175722D01*
X49967Y175289D01*
Y174711D01*
X49217Y174278D01*
X48222Y173283D01*
X47518Y172064D01*
X47154Y170704D01*
Y169296D01*
X47518Y167936D01*
X48222Y166717D01*
X48420Y166519D01*
X48399Y166308D01*
X48231Y166000D01*
X47280Y165220D01*
X46459Y164219D01*
X46357Y164117D01*
X46126Y163773D01*
X45398Y163045D01*
X44845Y162218D01*
X44651Y161242D01*
Y125438D01*
X43851Y124638D01*
X43299Y123811D01*
X43105Y122836D01*
Y117164D01*
X43299Y116189D01*
X43851Y115362D01*
X44651Y114562D01*
Y105300D01*
X44845Y104325D01*
X44845Y104324D01*
X45398Y103498D01*
X45691Y103205D01*
X47373Y101522D01*
X47154Y100704D01*
Y99296D01*
X47518Y97936D01*
X48222Y96717D01*
X49217Y95722D01*
X49967Y95289D01*
Y94711D01*
X49217Y94278D01*
X48222Y93283D01*
X47518Y92064D01*
X47154Y90704D01*
Y89296D01*
X47373Y88478D01*
X45851Y86956D01*
X45299Y86129D01*
X45105Y85154D01*
Y77992D01*
X45299Y77017D01*
X45851Y76190D01*
X48490Y73551D01*
X48222Y73283D01*
X47518Y72064D01*
X47154Y70704D01*
Y69296D01*
X47373Y68478D01*
X42298Y63402D01*
X41745Y62576D01*
X41551Y61600D01*
Y16800D01*
X41745Y15824D01*
X42298Y14998D01*
X43733Y13562D01*
X43542Y13100D01*
X37500D01*
Y258402D01*
X37975Y258556D01*
X38210Y258234D01*
X39434Y257010D01*
X40835Y255992D01*
X42377Y255206D01*
X44024Y254671D01*
X45734Y254400D01*
X47466D01*
X49176Y254671D01*
X50823Y255206D01*
X52365Y255992D01*
X53766Y257010D01*
X54990Y258234D01*
X56008Y259635D01*
X56794Y261177D01*
X57329Y262824D01*
X57600Y264534D01*
Y266266D01*
X57329Y267976D01*
X56794Y269622D01*
X56008Y271165D01*
X54990Y272566D01*
X53766Y273790D01*
X52365Y274808D01*
X50823Y275594D01*
X49176Y276129D01*
X47466Y276400D01*
X45734D01*
X44024Y276129D01*
X42377Y275594D01*
X40835Y274808D01*
X39434Y273790D01*
X38210Y272566D01*
X37975Y272244D01*
X37500Y272398D01*
Y276403D01*
X37600Y277034D01*
Y278766D01*
X37500Y279397D01*
Y305447D01*
X37962Y305638D01*
X38000Y305600D01*
D02*
G37*
G36*
X127351Y108278D02*
Y102909D01*
X127337Y102901D01*
X126499Y102063D01*
X125907Y101037D01*
X125600Y99892D01*
Y98708D01*
X125907Y97563D01*
X126499Y96537D01*
X127337Y95699D01*
X128363Y95107D01*
X129508Y94800D01*
X130692D01*
X131837Y95107D01*
X132651Y95577D01*
X133151Y95315D01*
Y66435D01*
X132651Y66143D01*
X131692Y66400D01*
X130508D01*
X129363Y66093D01*
X128337Y65501D01*
X127499Y64663D01*
X127375Y64449D01*
X126799D01*
X116821Y74427D01*
X116930Y74900D01*
X116996Y74959D01*
X117802Y75498D01*
X118355Y76324D01*
X118549Y77300D01*
Y92300D01*
X118355Y93275D01*
X117802Y94102D01*
X94702Y117202D01*
X93875Y117755D01*
X93738Y117782D01*
X93633Y118313D01*
X93729Y118377D01*
X96502Y121151D01*
X97055Y121978D01*
X97249Y122953D01*
Y128300D01*
X97055Y129276D01*
X96502Y130102D01*
X95736Y130869D01*
X95800Y131108D01*
Y132292D01*
X95493Y133437D01*
X94901Y134463D01*
X94063Y135301D01*
X93037Y135893D01*
X91892Y136200D01*
X90708D01*
X89563Y135893D01*
X88537Y135301D01*
X87699Y134463D01*
X87107Y133437D01*
X86800Y132292D01*
Y131108D01*
X87107Y129963D01*
X87690Y128954D01*
X87099Y128363D01*
X86976Y128149D01*
X85776D01*
Y129508D01*
X85412Y130867D01*
X84708Y132087D01*
X83713Y133082D01*
X82962Y133515D01*
Y134092D01*
X83713Y134526D01*
X84708Y135521D01*
X85412Y136740D01*
X85776Y138100D01*
Y139508D01*
X85412Y140867D01*
X84708Y142087D01*
X83713Y143082D01*
X82962Y143515D01*
Y144092D01*
X83713Y144526D01*
X84708Y145521D01*
X85412Y146740D01*
X85776Y148100D01*
Y149145D01*
X86276Y149353D01*
X127351Y108278D01*
D02*
G37*
%LPC*%
G36*
X50780Y299706D02*
X49620D01*
X48500Y299405D01*
X47495Y298825D01*
X46675Y298005D01*
X46095Y297001D01*
X45794Y295880D01*
Y294720D01*
X46095Y293600D01*
X46675Y292595D01*
X47495Y291775D01*
X48500Y291195D01*
X49620Y290895D01*
X50780D01*
X51901Y291195D01*
X52905Y291775D01*
X53725Y292595D01*
X54305Y293600D01*
X54606Y294720D01*
Y295880D01*
X54305Y297001D01*
X53725Y298005D01*
X52905Y298825D01*
X51901Y299405D01*
X50780Y299706D01*
D02*
G37*
G36*
X95392Y294000D02*
X94208D01*
X93063Y293693D01*
X92733Y293503D01*
X65500D01*
X64464Y293366D01*
X63499Y292967D01*
X62670Y292330D01*
X54231Y283892D01*
X53863Y283793D01*
X52837Y283201D01*
X51999Y282363D01*
X51407Y281337D01*
X51100Y280192D01*
Y279008D01*
X51407Y277863D01*
X51999Y276837D01*
X52837Y275999D01*
X53863Y275407D01*
X55008Y275100D01*
X56192D01*
X57337Y275407D01*
X58363Y275999D01*
X59201Y276837D01*
X59793Y277863D01*
X59892Y278231D01*
X67158Y285497D01*
X92733D01*
X93063Y285307D01*
X94208Y285000D01*
X95392D01*
X96537Y285307D01*
X97563Y285899D01*
X98401Y286737D01*
X98993Y287763D01*
X99300Y288908D01*
Y290092D01*
X98993Y291237D01*
X98401Y292263D01*
X97563Y293101D01*
X96537Y293693D01*
X95392Y294000D01*
D02*
G37*
G36*
X85777Y284151D02*
X75084D01*
Y273458D01*
X79134D01*
X79199Y272958D01*
X78759Y272840D01*
X77772Y272270D01*
X76965Y271464D01*
X76395Y270476D01*
X76105Y269395D01*
X80431D01*
X84756D01*
X84466Y270476D01*
X83896Y271464D01*
X83090Y272270D01*
X82102Y272840D01*
X81662Y272958D01*
X81728Y273458D01*
X85777D01*
Y284151D01*
D02*
G37*
G36*
X216849Y131257D02*
X215664D01*
X214520Y130950D01*
X213494Y130358D01*
X212656Y129520D01*
X212063Y128494D01*
X211757Y127349D01*
Y126164D01*
X211821Y125926D01*
X202831Y116936D01*
X202592Y117000D01*
X201408D01*
X200263Y116693D01*
X199237Y116101D01*
X198399Y115263D01*
X197807Y114237D01*
X197500Y113092D01*
Y111908D01*
X197807Y110763D01*
X198399Y109737D01*
X199237Y108899D01*
X200263Y108307D01*
X200757Y108174D01*
X200887Y107691D01*
X192544Y99349D01*
X158500D01*
X157525Y99155D01*
X156698Y98602D01*
X155624Y97529D01*
X155385Y97593D01*
X154200D01*
X153056Y97286D01*
X152030Y96694D01*
X151192Y95856D01*
X150600Y94830D01*
X150293Y93685D01*
Y92501D01*
X150600Y91356D01*
X151192Y90330D01*
X152030Y89492D01*
X153056Y88900D01*
X154200Y88593D01*
X155385D01*
X156530Y88900D01*
X157556Y89492D01*
X158394Y90330D01*
X158986Y91356D01*
X159293Y92501D01*
Y93685D01*
X159240Y93882D01*
X159561Y94251D01*
X193600D01*
X194576Y94445D01*
X195402Y94998D01*
X222469Y122064D01*
X222708Y122000D01*
X223892D01*
X225037Y122307D01*
X226063Y122899D01*
X226901Y123737D01*
X227493Y124763D01*
X227800Y125908D01*
Y127092D01*
X227493Y128237D01*
X226901Y129263D01*
X226063Y130101D01*
X225037Y130693D01*
X223892Y131000D01*
X222708D01*
X221563Y130693D01*
X220537Y130101D01*
X219944Y129508D01*
X219858Y129520D01*
X219020Y130358D01*
X217994Y130950D01*
X216849Y131257D01*
D02*
G37*
G36*
X296825Y119409D02*
X293091D01*
Y115675D01*
X294172Y115964D01*
X295159Y116535D01*
X295965Y117341D01*
X296536Y118328D01*
X296825Y119409D01*
D02*
G37*
G36*
X291910D02*
X288175D01*
X288464Y118328D01*
X289035Y117341D01*
X289841Y116535D01*
X290828Y115964D01*
X291910Y115675D01*
Y119409D01*
D02*
G37*
G36*
Y114325D02*
X290828Y114036D01*
X289841Y113465D01*
X289035Y112659D01*
X288464Y111672D01*
X288175Y110591D01*
X291910D01*
Y114325D01*
D02*
G37*
G36*
X272392Y131600D02*
X271208D01*
X270063Y131293D01*
X269037Y130701D01*
X268199Y129863D01*
X267607Y128837D01*
X267300Y127692D01*
Y126508D01*
X267607Y125363D01*
X268199Y124337D01*
X269037Y123499D01*
X269251Y123375D01*
Y70700D01*
X269445Y69725D01*
X269998Y68898D01*
X282081Y56814D01*
X281783Y56405D01*
X280646Y56984D01*
X278873Y57560D01*
X277032Y57852D01*
X275168D01*
X273327Y57560D01*
X271554Y56984D01*
X269893Y56138D01*
X268385Y55042D01*
X267067Y53724D01*
X265971Y52216D01*
X265125Y50555D01*
X264549Y48783D01*
X264258Y46942D01*
Y45077D01*
X264549Y43236D01*
X265125Y41464D01*
X265971Y39803D01*
X267067Y38295D01*
X268385Y36977D01*
X269893Y35881D01*
X271554Y35035D01*
X273327Y34459D01*
X275168Y34167D01*
X277032D01*
X278873Y34459D01*
X280646Y35035D01*
X282307Y35881D01*
X283815Y36977D01*
X285133Y38295D01*
X286229Y39803D01*
X286653Y40637D01*
X287154Y40516D01*
Y39296D01*
X287518Y37936D01*
X288222Y36717D01*
X289217Y35722D01*
X289967Y35289D01*
Y34711D01*
X289217Y34278D01*
X288222Y33283D01*
X287518Y32064D01*
X287154Y30704D01*
Y29296D01*
X287518Y27936D01*
X288222Y26717D01*
X289217Y25722D01*
X289967Y25289D01*
Y24711D01*
X289217Y24278D01*
X288222Y23283D01*
X287518Y22064D01*
X287154Y20704D01*
Y19296D01*
X287518Y17936D01*
X288222Y16717D01*
X289217Y15722D01*
X290436Y15018D01*
X291796Y14654D01*
X293204D01*
X294564Y15018D01*
X295783Y15722D01*
X296778Y16717D01*
X297211Y17467D01*
X297789D01*
X298222Y16717D01*
X299217Y15722D01*
X300436Y15018D01*
X301796Y14654D01*
X303204D01*
X304564Y15018D01*
X305783Y15722D01*
X306778Y16717D01*
X307482Y17936D01*
X307846Y19296D01*
Y20704D01*
X307482Y22064D01*
X306778Y23283D01*
X305783Y24278D01*
X305033Y24711D01*
Y25289D01*
X305783Y25722D01*
X306778Y26717D01*
X307482Y27936D01*
X307846Y29296D01*
Y30704D01*
X307482Y32064D01*
X306778Y33283D01*
X305783Y34278D01*
X305033Y34711D01*
Y35289D01*
X305783Y35722D01*
X306778Y36717D01*
X307482Y37936D01*
X307846Y39296D01*
Y40704D01*
X307482Y42064D01*
X306778Y43283D01*
X305783Y44278D01*
X305033Y44711D01*
Y45289D01*
X305783Y45722D01*
X306778Y46717D01*
X307482Y47936D01*
X307846Y49296D01*
Y50704D01*
X307482Y52064D01*
X306778Y53283D01*
X305783Y54278D01*
X305033Y54711D01*
Y55289D01*
X305783Y55722D01*
X306778Y56717D01*
X307482Y57936D01*
X307846Y59296D01*
Y60704D01*
X307482Y62064D01*
X306778Y63283D01*
X305783Y64278D01*
X305033Y64711D01*
Y65289D01*
X305783Y65722D01*
X306778Y66717D01*
X307482Y67936D01*
X307846Y69296D01*
Y70704D01*
X307482Y72064D01*
X306778Y73283D01*
X305783Y74278D01*
X305033Y74711D01*
Y75289D01*
X305783Y75722D01*
X306778Y76717D01*
X307482Y77936D01*
X307846Y79296D01*
Y80704D01*
X307482Y82064D01*
X306778Y83283D01*
X305783Y84278D01*
X305033Y84711D01*
Y85289D01*
X305783Y85722D01*
X306778Y86717D01*
X307482Y87936D01*
X307846Y89296D01*
Y90704D01*
X307482Y92064D01*
X306778Y93283D01*
X305783Y94278D01*
X305033Y94711D01*
Y95289D01*
X305783Y95722D01*
X306778Y96717D01*
X307482Y97936D01*
X307846Y99296D01*
Y100704D01*
X307482Y102064D01*
X306778Y103283D01*
X305783Y104278D01*
X305033Y104711D01*
Y105289D01*
X305783Y105722D01*
X306778Y106717D01*
X307482Y107936D01*
X307846Y109296D01*
Y110704D01*
X307482Y112064D01*
X306778Y113283D01*
X305783Y114278D01*
X304564Y114982D01*
X303501Y115267D01*
Y115785D01*
X304172Y115964D01*
X305159Y116535D01*
X305965Y117341D01*
X306536Y118328D01*
X306825Y119409D01*
X302500D01*
X298175D01*
X298464Y118328D01*
X299035Y117341D01*
X299841Y116535D01*
X300828Y115964D01*
X301500Y115785D01*
Y115267D01*
X300436Y114982D01*
X299217Y114278D01*
X298222Y113283D01*
X297518Y112064D01*
X297233Y111001D01*
X296715D01*
X296536Y111672D01*
X295965Y112659D01*
X295159Y113465D01*
X294172Y114036D01*
X293091Y114325D01*
Y110000D01*
X292500D01*
Y109409D01*
X288175D01*
X288464Y108328D01*
X289035Y107341D01*
X289841Y106535D01*
X290828Y105964D01*
X291499Y105785D01*
Y105267D01*
X290436Y104982D01*
X289217Y104278D01*
X288222Y103283D01*
X287518Y102064D01*
X287154Y100704D01*
Y99296D01*
X287518Y97936D01*
X288222Y96717D01*
X289217Y95722D01*
X289967Y95289D01*
Y94711D01*
X289217Y94278D01*
X288222Y93283D01*
X287518Y92064D01*
X287154Y90704D01*
Y89296D01*
X287518Y87936D01*
X288222Y86717D01*
X289217Y85722D01*
X289967Y85289D01*
Y84711D01*
X289217Y84278D01*
X288222Y83283D01*
X287518Y82064D01*
X287154Y80704D01*
Y79296D01*
X287518Y77936D01*
X288222Y76717D01*
X289217Y75722D01*
X289967Y75289D01*
Y74711D01*
X289217Y74278D01*
X288222Y73283D01*
X287518Y72064D01*
X287154Y70704D01*
Y69296D01*
X287518Y67936D01*
X288222Y66717D01*
X289217Y65722D01*
X289967Y65289D01*
Y64711D01*
X289217Y64278D01*
X288222Y63283D01*
X287518Y62064D01*
X287154Y60704D01*
Y59658D01*
X286653Y59451D01*
X274349Y71756D01*
Y123375D01*
X274563Y123499D01*
X275401Y124337D01*
X275993Y125363D01*
X276300Y126508D01*
Y127692D01*
X275993Y128837D01*
X275401Y129863D01*
X274563Y130701D01*
X273537Y131293D01*
X272392Y131600D01*
D02*
G37*
%LPD*%
D10*
X75543Y161142D02*
G03*
X75538Y161132I887J-463D01*
G01*
X77603Y163686D02*
G03*
X75543Y161142I5357J-6444D01*
G01*
X78238Y163914D02*
G03*
X77603Y163686I0J-1000D01*
G01*
X65424Y176135D02*
G03*
X66365Y177076I-2923J3865D01*
G01*
X63350Y175229D02*
G03*
X63439Y175245I-850J4771D01*
G01*
X49802Y164026D02*
G03*
X48474Y162698I2698J-4026D01*
G01*
X57333Y169633D02*
G03*
X57333Y170367I-4833J367D01*
G01*
X44100Y16800D02*
X48500Y12400D01*
X189414D02*
X190000Y12986D01*
Y85559D01*
X48500Y12400D02*
X189414D01*
X147050Y130907D02*
X148206Y132063D01*
Y138394D01*
X147600Y139000D02*
X148206Y138394D01*
X181500Y138700D02*
X181600Y138600D01*
X181500Y138700D02*
Y198200D01*
X166000Y213700D02*
X181500Y198200D01*
X161300Y125600D02*
X182200D01*
X182300Y125500D01*
X157650Y129250D02*
X161300Y125600D01*
X74800Y71100D02*
X75400D01*
X68853Y65153D02*
X74800Y71100D01*
X219800Y45400D02*
X220300Y45900D01*
Y77200D01*
X132043Y33000D02*
X160193Y61150D01*
X73500Y33000D02*
X132043D01*
X188343Y89559D02*
X207941D01*
X220300Y77200D01*
X68100Y38400D02*
X73500Y33000D01*
X103053Y168804D02*
X130631Y196381D01*
X90372Y162300D02*
X101100D01*
X80430Y168804D02*
X103053D01*
X88758Y163914D02*
X90372Y162300D01*
X78238Y163914D02*
X88758D01*
X94800Y173643D02*
Y181918D01*
X93400Y183318D02*
Y184400D01*
Y183318D02*
X94800Y181918D01*
X75430Y160919D02*
X75538Y161132D01*
X75430Y160680D02*
X75430Y160919D01*
X75430Y153804D02*
Y160680D01*
X70600Y123620D02*
Y171361D01*
X71928Y172689D02*
Y173772D01*
X70600Y171361D02*
X71928Y172689D01*
X70600Y123620D02*
X71222Y122998D01*
X101100Y162300D02*
X119600Y180800D01*
X130631Y196381D02*
X148619D01*
X119600Y180800D02*
X130400D01*
X154631Y216538D02*
Y223006D01*
Y216538D02*
X156500Y214670D01*
Y175795D02*
Y214670D01*
Y175795D02*
X167463Y164832D01*
Y159444D02*
Y164832D01*
X159720Y149031D02*
Y153733D01*
X161064Y155078D01*
X163097D01*
X147050Y101750D02*
Y130907D01*
X139700Y99300D02*
X144600D01*
X147050Y101750D01*
X151759Y155705D02*
X154375Y158322D01*
X150814Y155705D02*
X151759D01*
X154375Y158322D02*
Y165911D01*
X150781Y169505D02*
X154375Y165911D01*
X135700Y53700D02*
Y176300D01*
Y53700D02*
X139000Y50400D01*
X135700Y176300D02*
X146781Y187381D01*
X151050Y129250D02*
X157650D01*
X154500Y171443D02*
X155122Y170822D01*
X166000Y213700D02*
Y218077D01*
X154500Y171443D02*
Y196622D01*
X148200Y202922D02*
X154500Y196622D01*
X148200Y202922D02*
Y228100D01*
X166000Y218077D02*
X166123Y218200D01*
X197000Y129692D02*
X202208Y134900D01*
X229800D01*
X197000Y128700D02*
Y129692D01*
X188950Y107900D02*
Y108982D01*
X189200Y203818D02*
X190300Y202718D01*
Y110332D02*
Y202718D01*
X189200Y203818D02*
Y204900D01*
X188950Y108982D02*
X190300Y110332D01*
X202000Y112500D02*
X216257Y126757D01*
X75584Y186386D02*
Y190812D01*
X76151Y183651D02*
X82437D01*
X62500Y170000D02*
X76151Y183651D01*
X66649Y177452D02*
X75584Y186386D01*
X87277Y178823D02*
Y188812D01*
X82437Y193650D02*
X87277Y188812D01*
X75584Y190812D02*
X78423Y193650D01*
X87277Y178823D02*
X90800Y175300D01*
X85277Y175167D02*
Y180812D01*
X89143Y171300D02*
X92457D01*
X82437Y183651D02*
X85277Y180812D01*
Y175167D02*
X89143Y171300D01*
X92457D02*
X94800Y173643D01*
X78423Y193650D02*
X82437D01*
X66365Y177076D02*
X66649Y177452D01*
X64090Y175374D02*
X64571D01*
X65048Y175851D01*
X63439Y175245D02*
X64090Y175374D01*
X65048Y175851D02*
X65424Y176135D01*
X90800Y175300D02*
Y175300D01*
X116000Y77300D02*
Y92300D01*
X92900Y115400D02*
X116000Y92300D01*
X81700Y80200D02*
X107443D01*
X125743Y61900D02*
X131100D01*
X107443Y80200D02*
X125743Y61900D01*
X71053Y90847D02*
X81700Y80200D01*
X102900Y75100D02*
X124100Y53900D01*
X57400Y75100D02*
X102900D01*
X82437Y103957D02*
X92900Y114420D01*
X76260Y103957D02*
X82437D01*
X65371Y114847D02*
X76260Y103957D01*
X47653Y117992D02*
Y122008D01*
X57653Y114847D02*
X65371D01*
X47653Y122008D02*
X50493Y124846D01*
X52500Y120000D02*
X57653Y114847D01*
X67347Y121217D02*
X74760Y113803D01*
X49200Y113554D02*
Y116446D01*
X67347Y121217D02*
Y122008D01*
X49200Y113554D02*
X52500Y110254D01*
X50493Y124846D02*
X64508D01*
X52500Y110000D02*
Y110254D01*
X47653Y117992D02*
X49200Y116446D01*
X64508Y124846D02*
X67347Y122008D01*
X47200Y105300D02*
Y115618D01*
X92900Y114420D02*
Y115400D01*
X45654Y117164D02*
Y122836D01*
Y117164D02*
X47200Y115618D01*
Y124382D02*
Y161242D01*
X74760Y113803D02*
X85460D01*
X45654Y122836D02*
X47200Y124382D01*
Y161242D02*
X48104Y162146D01*
X85460Y113803D02*
X91837Y120180D01*
X91927D01*
X94700Y122953D01*
Y128300D01*
X84559Y125600D02*
X90700D01*
X91300Y131700D02*
X94700Y128300D01*
X82759Y123800D02*
X84559Y125600D01*
X72600Y129000D02*
X77800Y123800D01*
X82759D01*
X180462Y208200D02*
X181762Y209500D01*
X179400Y208200D02*
X180462D01*
X190657Y209500D02*
X211600Y188557D01*
X181762Y209500D02*
X190657D01*
X202314Y203500D02*
X208057D01*
X211600Y165043D02*
Y188557D01*
X202207Y203607D02*
X202314Y203500D01*
X223400Y140500D02*
Y188157D01*
X208057Y203500D02*
X223400Y188157D01*
X146781Y187381D02*
Y192381D01*
X150781Y169505D02*
Y194219D01*
X148619Y196381D02*
X150781Y194219D01*
X193600Y96800D02*
X223300Y126500D01*
X158500Y96800D02*
X193600D01*
X210337Y139941D02*
Y163780D01*
X211600Y165043D01*
X160193Y61150D02*
Y61409D01*
X188343Y89559D01*
X139000Y45614D02*
Y50400D01*
X138793Y45407D02*
X139000Y45614D01*
X68472Y80000D02*
X70138Y78335D01*
X74535D01*
X75300Y79100D01*
X129900Y99500D02*
X130100Y99300D01*
X129900Y99500D02*
Y109334D01*
X163097Y155078D02*
X167463Y159444D01*
X60160Y174660D02*
X63350Y175229D01*
X48104Y162146D02*
X48474Y162698D01*
X50958Y165000D02*
X54500D01*
X57313Y167813D02*
Y169375D01*
X54500Y165000D02*
X57313Y167813D01*
Y171813D02*
X60160Y174660D01*
X57313Y170625D02*
X57333Y170367D01*
X57313Y169375D02*
X57333Y169633D01*
X57313Y170625D02*
Y171813D01*
X75430Y153804D02*
X75723Y153511D01*
X80430Y148804D01*
X57500Y68146D02*
X60492Y65153D01*
X68853D01*
X54507Y74847D02*
X57500Y71854D01*
X50800Y74847D02*
X54507D01*
X47653Y77992D02*
X50800Y74847D01*
X57500Y68146D02*
Y71854D01*
X47653Y77992D02*
Y85154D01*
X52500Y90000D01*
Y80000D02*
X57400Y75100D01*
X68100Y38400D02*
Y44400D01*
X62500Y50000D02*
X68100Y44400D01*
X229800Y134900D02*
X233800Y138900D01*
X242298Y134802D02*
X242300Y134800D01*
X233800Y138900D02*
X237898Y134802D01*
X242298D01*
X242300Y134800D02*
X291830D01*
X297700D02*
X302500Y130000D01*
X291877Y134846D02*
X292551D01*
X292552Y134846D01*
X291830Y134800D02*
X291877Y134846D01*
X296872Y134800D02*
X297700Y134800D01*
X292552Y134846D02*
X296872Y134800D01*
X233800Y138900D02*
Y233300D01*
X224200Y242900D02*
X233800Y233300D01*
X216300Y139275D02*
Y189600D01*
X211000Y194900D02*
X216300Y189600D01*
X47200Y105300D02*
X47493Y105007D01*
X49802Y164026D02*
X50353Y164396D01*
X50958Y165000D01*
X47493Y105007D02*
X52500Y100000D01*
X71053Y90847D02*
Y101447D01*
X80430Y158804D02*
X129900Y109334D01*
X97500Y242900D02*
X224200D01*
X93700Y239100D02*
X97500Y242900D01*
X154793Y93093D02*
X158500Y96800D01*
X62500Y110000D02*
X71053Y101447D01*
X44100Y16800D02*
Y61600D01*
X52500Y70000D01*
X271800Y70700D02*
X292500Y50000D01*
X271800Y70700D02*
Y127100D01*
X72600Y129000D02*
Y140974D01*
X80430Y148804D01*
X62500Y80000D02*
X68472D01*
X22098Y83500D02*
X16100D01*
X18099D01*
X22098Y87499D01*
X19099Y84500D01*
X16100Y87499D01*
Y89498D02*
Y91497D01*
Y90498D01*
X20099D01*
Y89498D01*
Y94496D02*
X16100D01*
X18099D01*
X19099Y95496D01*
X20099Y96496D01*
Y97496D01*
Y101494D02*
Y103493D01*
X19099Y104493D01*
X16100D01*
Y101494D01*
X17100Y100495D01*
X18099Y101494D01*
Y104493D01*
X16100Y106493D02*
Y108492D01*
Y107492D01*
X22098D01*
Y106493D01*
X20099Y111491D02*
X17100D01*
X16100Y112491D01*
Y115490D01*
X15100D01*
X14101Y114490D01*
Y113490D01*
X16100Y115490D02*
X20099D01*
X22098Y123487D02*
X16100D01*
X18099D01*
X22098Y127486D01*
X19099Y124487D01*
X16100Y127486D01*
X20099Y129485D02*
X16100D01*
X18099D01*
X19099Y130485D01*
X20099Y131484D01*
Y132484D01*
X16100Y135483D02*
Y137483D01*
Y136483D01*
X20099D01*
Y135483D01*
X16100Y140482D02*
Y143481D01*
X17100Y144480D01*
X18099Y143481D01*
Y141481D01*
X19099Y140482D01*
X20099Y141481D01*
Y144480D01*
Y146480D02*
Y150478D01*
X16100Y146480D01*
Y150478D01*
X21098Y153477D02*
X20099D01*
Y152478D01*
Y154477D01*
Y153477D01*
X17100D01*
X16100Y154477D01*
Y157476D02*
Y159475D01*
Y158476D01*
X20099D01*
Y157476D01*
X16100Y162474D02*
X20099D01*
Y165473D01*
X19099Y166473D01*
X16100D01*
X20099Y169472D02*
Y171472D01*
X19099Y172471D01*
X16100D01*
Y169472D01*
X17100Y168473D01*
X18099Y169472D01*
Y172471D01*
D35*
X146591Y147686D02*
X149853D01*
X151009Y148843D01*
X153200D02*
X153403Y149046D01*
X151009Y148843D02*
X153200D01*
X55397Y279397D02*
X55600Y279600D01*
X26600Y277900D02*
X28097Y279397D01*
X55600Y279600D02*
X65500Y289500D01*
X94800D01*
X154900Y229000D02*
X155103Y228797D01*
X156574D02*
X160100Y225271D01*
X155103Y228797D02*
X156574D01*
X160100Y177732D02*
Y225271D01*
X166160Y175426D02*
X166363Y175222D01*
X162406Y175426D02*
X166160D01*
X160100Y177732D02*
X162406Y175426D01*
X166275Y174875D02*
X166710D01*
X173897Y168503D02*
X174100Y168300D01*
X173082Y168503D02*
X173897D01*
X166710Y174875D02*
X173082Y168503D01*
X144285Y149992D02*
Y156910D01*
X146197Y158822D01*
Y164397D01*
X144650Y149627D02*
X146591Y147686D01*
X141651Y107587D02*
X143050Y106188D01*
X141651Y146628D02*
X144650Y149627D01*
X143050Y105900D02*
Y106188D01*
X141651Y107587D02*
Y146628D01*
X144285Y149992D02*
X144650Y149627D01*
D36*
X26600Y277900D02*
D03*
Y252900D02*
D03*
X46600Y265400D02*
D03*
D37*
X60200Y305300D02*
D03*
X50200Y295300D02*
D03*
D38*
Y315300D02*
D03*
D39*
X62500Y20000D02*
D03*
X52500D02*
D03*
X302500D02*
D03*
X292500D02*
D03*
Y30000D02*
D03*
X302500D02*
D03*
X292500Y40000D02*
D03*
X302500D02*
D03*
X292500Y50000D02*
D03*
X302500D02*
D03*
X292500Y60000D02*
D03*
X302500D02*
D03*
X292500Y70000D02*
D03*
X302500D02*
D03*
X292500Y80000D02*
D03*
X302500D02*
D03*
X292500Y90000D02*
D03*
X302500D02*
D03*
X292500Y100000D02*
D03*
X302500D02*
D03*
X292500Y110000D02*
D03*
X302500D02*
D03*
X292500Y120000D02*
D03*
X302500D02*
D03*
X292500Y130000D02*
D03*
X302500D02*
D03*
X292500Y140000D02*
D03*
X302500D02*
D03*
X292500Y150000D02*
D03*
X302500D02*
D03*
X292500Y160000D02*
D03*
X302500D02*
D03*
X292500Y170000D02*
D03*
X302500D02*
D03*
X292500Y180000D02*
D03*
X302500D02*
D03*
X292500Y190000D02*
D03*
X302500D02*
D03*
X292500Y200000D02*
D03*
X302500D02*
D03*
X292500Y210000D02*
D03*
X52500Y30000D02*
D03*
X62500D02*
D03*
X52500Y40000D02*
D03*
X62500D02*
D03*
X52500Y50000D02*
D03*
X62500D02*
D03*
X52500Y60000D02*
D03*
X62500D02*
D03*
X52500Y70000D02*
D03*
X62500D02*
D03*
X52500Y80000D02*
D03*
X62500D02*
D03*
X52500Y90000D02*
D03*
X62500D02*
D03*
X52500Y100000D02*
D03*
X62500D02*
D03*
X52500Y110000D02*
D03*
X62500D02*
D03*
X52500Y120000D02*
D03*
X62500D02*
D03*
X52500Y130000D02*
D03*
X62500D02*
D03*
X52500Y140000D02*
D03*
X62500D02*
D03*
X52500Y150000D02*
D03*
X62500D02*
D03*
X52500Y160000D02*
D03*
X62500D02*
D03*
X52500Y170000D02*
D03*
X62500D02*
D03*
X52500Y180000D02*
D03*
X62500D02*
D03*
X52500Y190000D02*
D03*
X62500D02*
D03*
X52500Y200000D02*
D03*
X62500D02*
D03*
X52500Y210000D02*
D03*
X80431Y258805D02*
D03*
Y248805D02*
D03*
Y268805D02*
D03*
X80430Y218804D02*
D03*
Y208804D02*
D03*
Y228804D02*
D03*
Y238804D02*
D03*
X80430Y178804D02*
D03*
Y168804D02*
D03*
Y188804D02*
D03*
Y198804D02*
D03*
X80430Y138804D02*
D03*
Y128804D02*
D03*
Y148804D02*
D03*
Y158804D02*
D03*
X80429Y98803D02*
D03*
Y88803D02*
D03*
Y108803D02*
D03*
Y118803D02*
D03*
D40*
X302500Y210000D02*
D03*
X62500D02*
D03*
D41*
X80431Y278805D02*
D03*
D42*
Y321600D02*
D03*
X276100D02*
D03*
Y46009D02*
D03*
X80431D02*
D03*
D43*
X335700Y328700D02*
D03*
X20700D02*
D03*
X335000Y20000D02*
D03*
X20000D02*
D03*
D44*
X147600Y139000D02*
D03*
X153403Y149046D02*
D03*
X181600Y138600D02*
D03*
X182300Y125500D02*
D03*
X75400Y71100D02*
D03*
X219800Y45400D02*
D03*
X55600Y279600D02*
D03*
X154900Y229000D02*
D03*
X154631Y223006D02*
D03*
X166363Y175222D02*
D03*
X174100Y168300D02*
D03*
X146197Y164397D02*
D03*
X150814Y155705D02*
D03*
X139700Y99300D02*
D03*
X151050Y129250D02*
D03*
X159720Y149031D02*
D03*
X166123Y218200D02*
D03*
X197000Y128700D02*
D03*
X202000Y112500D02*
D03*
X93700Y239100D02*
D03*
X116000Y77300D02*
D03*
X71928Y173772D02*
D03*
X93400Y184400D02*
D03*
X90800Y175300D02*
D03*
X71222Y122998D02*
D03*
X92900Y115400D02*
D03*
X91300Y131700D02*
D03*
X90700Y125600D02*
D03*
X94800Y289500D02*
D03*
X148200Y228100D02*
D03*
X179400Y208200D02*
D03*
X189200Y204900D02*
D03*
X202207Y203607D02*
D03*
X211000Y194900D02*
D03*
X146781Y192381D02*
D03*
X130400Y180800D02*
D03*
X223300Y126500D02*
D03*
X223200Y139000D02*
D03*
X216300Y139275D02*
D03*
X210337Y139941D02*
D03*
X216257Y126757D02*
D03*
X271800Y127100D02*
D03*
X188950Y107900D02*
D03*
X190000Y85559D02*
D03*
X138793Y45407D02*
D03*
X154793Y93093D02*
D03*
X124100Y53900D02*
D03*
X131100Y61900D02*
D03*
X75300Y79100D02*
D03*
X130100Y99300D02*
D03*
X143050Y105900D02*
D03*
X155122Y170822D02*
D03*
M02*
