G04*
G04 #@! TF.GenerationSoftware,Altium Limited,Altium Designer,24.2.2 (26)*
G04*
G04 Layer_Color=16711935*
%FSLAX25Y25*%
%MOIN*%
G70*
G04*
G04 #@! TF.SameCoordinates,7880CA01-A185-4AAC-BB8A-744F794AF487*
G04*
G04*
G04 #@! TF.FilePolarity,Negative*
G04*
G01*
G75*
%ADD20C,0.18787*%
%ADD21C,0.05598*%
%ADD22R,0.05598X0.05598*%
%ADD23C,0.07480*%
%ADD24R,0.07480X0.07480*%
%ADD25R,0.07480X0.07480*%
%ADD26C,0.20472*%
%ADD27C,0.24410*%
%ADD28C,0.05787*%
D20*
X26600Y277900D02*
D03*
Y252900D02*
D03*
X46600Y265400D02*
D03*
D21*
X60200Y305300D02*
D03*
X50200Y295300D02*
D03*
D22*
Y315300D02*
D03*
D23*
X62500Y20000D02*
D03*
X52500D02*
D03*
X302500D02*
D03*
X292500D02*
D03*
Y30000D02*
D03*
X302500D02*
D03*
X292500Y40000D02*
D03*
X302500D02*
D03*
X292500Y50000D02*
D03*
X302500D02*
D03*
X292500Y60000D02*
D03*
X302500D02*
D03*
X292500Y70000D02*
D03*
X302500D02*
D03*
X292500Y80000D02*
D03*
X302500D02*
D03*
X292500Y90000D02*
D03*
X302500D02*
D03*
X292500Y100000D02*
D03*
X302500D02*
D03*
X292500Y110000D02*
D03*
X302500D02*
D03*
X292500Y120000D02*
D03*
X302500D02*
D03*
X292500Y130000D02*
D03*
X302500D02*
D03*
X292500Y140000D02*
D03*
X302500D02*
D03*
X292500Y150000D02*
D03*
X302500D02*
D03*
X292500Y160000D02*
D03*
X302500D02*
D03*
X292500Y170000D02*
D03*
X302500D02*
D03*
X292500Y180000D02*
D03*
X302500D02*
D03*
X292500Y190000D02*
D03*
X302500D02*
D03*
X292500Y200000D02*
D03*
X302500D02*
D03*
X292500Y210000D02*
D03*
X52500Y30000D02*
D03*
X62500D02*
D03*
X52500Y40000D02*
D03*
X62500D02*
D03*
X52500Y50000D02*
D03*
X62500D02*
D03*
X52500Y60000D02*
D03*
X62500D02*
D03*
X52500Y70000D02*
D03*
X62500D02*
D03*
X52500Y80000D02*
D03*
X62500D02*
D03*
X52500Y90000D02*
D03*
X62500D02*
D03*
X52500Y100000D02*
D03*
X62500D02*
D03*
X52500Y110000D02*
D03*
X62500D02*
D03*
X52500Y120000D02*
D03*
X62500D02*
D03*
X52500Y130000D02*
D03*
X62500D02*
D03*
X52500Y140000D02*
D03*
X62500D02*
D03*
X52500Y150000D02*
D03*
X62500D02*
D03*
X52500Y160000D02*
D03*
X62500D02*
D03*
X52500Y170000D02*
D03*
X62500D02*
D03*
X52500Y180000D02*
D03*
X62500D02*
D03*
X52500Y190000D02*
D03*
X62500D02*
D03*
X52500Y200000D02*
D03*
X62500D02*
D03*
X52500Y210000D02*
D03*
X80431Y258805D02*
D03*
Y248805D02*
D03*
Y268805D02*
D03*
X80430Y218804D02*
D03*
Y208804D02*
D03*
Y228804D02*
D03*
Y238804D02*
D03*
X80430Y178804D02*
D03*
Y168804D02*
D03*
Y188804D02*
D03*
Y198804D02*
D03*
X80430Y138804D02*
D03*
Y128804D02*
D03*
Y148804D02*
D03*
Y158804D02*
D03*
X80429Y98803D02*
D03*
Y88803D02*
D03*
Y108803D02*
D03*
Y118803D02*
D03*
D24*
X302500Y210000D02*
D03*
X62500D02*
D03*
D25*
X80431Y278805D02*
D03*
D26*
Y321600D02*
D03*
X276100D02*
D03*
Y46009D02*
D03*
X80431D02*
D03*
D27*
X335700Y328700D02*
D03*
X20700D02*
D03*
X335000Y20000D02*
D03*
X20000D02*
D03*
D28*
X147600Y139000D02*
D03*
X153403Y149046D02*
D03*
X181600Y138600D02*
D03*
X182300Y125500D02*
D03*
X75400Y71100D02*
D03*
X219800Y45400D02*
D03*
X55600Y279600D02*
D03*
X154900Y229000D02*
D03*
X154631Y223006D02*
D03*
X166363Y175222D02*
D03*
X174100Y168300D02*
D03*
X146197Y164397D02*
D03*
X150814Y155705D02*
D03*
X139700Y99300D02*
D03*
X151050Y129250D02*
D03*
X159720Y149031D02*
D03*
X166123Y218200D02*
D03*
X197000Y128700D02*
D03*
X202000Y112500D02*
D03*
X93700Y239100D02*
D03*
X116000Y77300D02*
D03*
X71928Y173772D02*
D03*
X93400Y184400D02*
D03*
X90800Y175300D02*
D03*
X71222Y122998D02*
D03*
X92900Y115400D02*
D03*
X91300Y131700D02*
D03*
X90700Y125600D02*
D03*
X94800Y289500D02*
D03*
X148200Y228100D02*
D03*
X179400Y208200D02*
D03*
X189200Y204900D02*
D03*
X202207Y203607D02*
D03*
X211000Y194900D02*
D03*
X146781Y192381D02*
D03*
X130400Y180800D02*
D03*
X223300Y126500D02*
D03*
X223200Y139000D02*
D03*
X216300Y139275D02*
D03*
X210337Y139941D02*
D03*
X216257Y126757D02*
D03*
X271800Y127100D02*
D03*
X188950Y107900D02*
D03*
X190000Y85559D02*
D03*
X138793Y45407D02*
D03*
X154793Y93093D02*
D03*
X124100Y53900D02*
D03*
X131100Y61900D02*
D03*
X75300Y79100D02*
D03*
X130100Y99300D02*
D03*
X143050Y105900D02*
D03*
X155122Y170822D02*
D03*
M02*
